  0
SECTION
  2
HEADER
  9
$ACADVER
  1
AC2.10
  0
ENDSEC
  0
SECTION
  2
TABLES
  0
TABLE
  2
LAYER
 70
     8
  0
LAYER
  2
0
 62
     7
 70
0
  6
CONTINUOUS
  0
LAYER
  2
1
 62
     1
 70
0
  6
CONTINUOUS
  0
LAYER
  2
2
 62
     2
 70
0
  6
CONTINUOUS
  0
LAYER
  2
3
 62
     3
 70
0
  6
CONTINUOUS
  0
LAYER
  2
4
 62
     4
 70
0
  6
CONTINUOUS
  0
LAYER
  2
5
 62
     5
 70
0
  6
CONTINUOUS
  0
LAYER
  2
6
 62
     6
 70
0
  6
CONTINUOUS
  0
LAYER
  2
7
 62
     7
 70
0
  6
CONTINUOUS
  0
ENDTAB
  0
TABLE
  2
STYLE
 70
     1
  0
STYLE
 70
     0
  2
STANDARD
  3
TXT
 40
0.00
 41
1.00
 42
1.00
 50
0.00
 71
     0
  0
ENDTAB
  0
ENDSEC
  0
SECTION
  2
BLOCKS
  0
BLOCK
  8
0
  2
EPAD
 70
0
 10
0.0
 20
0.0
  0
POLYLINE
  8
0
 66
1
 70
1
 40
0.5
 41
0.5
  0
VERTEX
  8
0
 10
-0.25
 20
0.0
 42
1.0
  0
VERTEX
  8
0
 10
0.25
 20
0.0
 42
1.0
  0
SEQEND
  8
0
  0
ENDBLK
  8
0
  0
BLOCK
  8
0
  2
RPAD
 70
0
 10
0.0
 20
0.0
  0
TRACE
  8
0
 10
-0.5
 20
-0.5
 11
-0.5
 21
0.5
 12
0.5
 22
-0.5
 13
0.5
 23
0.5
  0
ENDBLK
  8
0
  0
ENDSEC
0
SECTION
2
ENTITIES
0
POLYLINE
8
0
66
1
40
0.020000
41
0.020000
0
VERTEX
8
0
10
-8.400000
20
-8.250000
0
VERTEX
8
0
10
6.600000
20
-8.250000
0
VERTEX
8
0
10
6.600000
20
1.750000
0
VERTEX
8
0
10
-8.400000
20
1.750000
0
VERTEX
8
0
10
-8.400000
20
-8.250000
0
SEQEND
8
0
0
POLYLINE
8
0
66
1
40
0.020000
41
0.020000
0
VERTEX
8
0
10
-8.200000
20
-8.050000
0
VERTEX
8
0
10
6.400000
20
-8.050000
0
VERTEX
8
0
10
6.400000
20
1.550000
0
VERTEX
8
0
10
-8.200000
20
1.550000
0
VERTEX
8
0
10
-8.200000
20
-8.050000
0
SEQEND
8
0
0
POLYLINE
8
0
66
1
40
0.018000
41
0.018000
0
VERTEX
8
0
10
-6.740000
20
1.550000
0
VERTEX
8
0
10
-6.740000
20
1.750000
0
SEQEND
8
0
0
POLYLINE
8
0
66
1
40
0.018000
41
0.018000
0
VERTEX
8
0
10
-8.200000
20
1.550000
0
VERTEX
8
0
10
-8.200000
20
1.750000
0
SEQEND
8
0
0
POLYLINE
8
0
66
1
40
0.018000
41
0.018000
0
VERTEX
8
0
10
-5.280000
20
1.550000
0
VERTEX
8
0
10
-5.280000
20
1.750000
0
SEQEND
8
0
0
POLYLINE
8
0
66
1
40
0.018000
41
0.018000
0
VERTEX
8
0
10
-6.740000
20
1.550000
0
VERTEX
8
0
10
-6.740000
20
1.750000
0
SEQEND
8
0
0
POLYLINE
8
0
66
1
40
0.018000
41
0.018000
0
VERTEX
8
0
10
-3.820000
20
1.550000
0
VERTEX
8
0
10
-3.820000
20
1.750000
0
SEQEND
8
0
0
POLYLINE
8
0
66
1
40
0.018000
41
0.018000
0
VERTEX
8
0
10
-5.280000
20
1.550000
0
VERTEX
8
0
10
-5.280000
20
1.750000
0
SEQEND
8
0
0
POLYLINE
8
0
66
1
40
0.018000
41
0.018000
0
VERTEX
8
0
10
-2.360000
20
1.550000
0
VERTEX
8
0
10
-2.360000
20
1.750000
0
SEQEND
8
0
0
POLYLINE
8
0
66
1
40
0.018000
41
0.018000
0
VERTEX
8
0
10
-3.820000
20
1.550000
0
VERTEX
8
0
10
-3.820000
20
1.750000
0
SEQEND
8
0
0
POLYLINE
8
0
66
1
40
0.018000
41
0.018000
0
VERTEX
8
0
10
-0.900000
20
1.550000
0
VERTEX
8
0
10
-0.900000
20
1.750000
0
SEQEND
8
0
0
POLYLINE
8
0
66
1
40
0.018000
41
0.018000
0
VERTEX
8
0
10
-2.360000
20
1.550000
0
VERTEX
8
0
10
-2.360000
20
1.750000
0
SEQEND
8
0
0
POLYLINE
8
0
66
1
40
0.018000
41
0.018000
0
VERTEX
8
0
10
0.560000
20
1.550000
0
VERTEX
8
0
10
0.560000
20
1.750000
0
SEQEND
8
0
0
POLYLINE
8
0
66
1
40
0.018000
41
0.018000
0
VERTEX
8
0
10
-0.900000
20
1.550000
0
VERTEX
8
0
10
-0.900000
20
1.750000
0
SEQEND
8
0
0
POLYLINE
8
0
66
1
40
0.018000
41
0.018000
0
VERTEX
8
0
10
2.020000
20
1.550000
0
VERTEX
8
0
10
2.020000
20
1.750000
0
SEQEND
8
0
0
POLYLINE
8
0
66
1
40
0.018000
41
0.018000
0
VERTEX
8
0
10
0.560000
20
1.550000
0
VERTEX
8
0
10
0.560000
20
1.750000
0
SEQEND
8
0
0
POLYLINE
8
0
66
1
40
0.018000
41
0.018000
0
VERTEX
8
0
10
3.480000
20
1.550000
0
VERTEX
8
0
10
3.480000
20
1.750000
0
SEQEND
8
0
0
POLYLINE
8
0
66
1
40
0.018000
41
0.018000
0
VERTEX
8
0
10
2.020000
20
1.550000
0
VERTEX
8
0
10
2.020000
20
1.750000
0
SEQEND
8
0
0
POLYLINE
8
0
66
1
40
0.018000
41
0.018000
0
VERTEX
8
0
10
4.940000
20
1.550000
0
VERTEX
8
0
10
4.940000
20
1.750000
0
SEQEND
8
0
0
POLYLINE
8
0
66
1
40
0.018000
41
0.018000
0
VERTEX
8
0
10
3.480000
20
1.550000
0
VERTEX
8
0
10
3.480000
20
1.750000
0
SEQEND
8
0
0
POLYLINE
8
0
66
1
40
0.018000
41
0.018000
0
VERTEX
8
0
10
6.400000
20
1.550000
0
VERTEX
8
0
10
6.400000
20
1.750000
0
SEQEND
8
0
0
POLYLINE
8
0
66
1
40
0.018000
41
0.018000
0
VERTEX
8
0
10
4.940000
20
1.550000
0
VERTEX
8
0
10
4.940000
20
1.750000
0
SEQEND
8
0
0
POLYLINE
8
0
66
1
40
0.018000
41
0.018000
0
VERTEX
8
0
10
-6.740000
20
-8.250000
0
VERTEX
8
0
10
-6.740000
20
-8.050000
0
SEQEND
8
0
0
POLYLINE
8
0
66
1
40
0.018000
41
0.018000
0
VERTEX
8
0
10
-5.280000
20
-8.250000
0
VERTEX
8
0
10
-5.280000
20
-8.050000
0
SEQEND
8
0
0
POLYLINE
8
0
66
1
40
0.018000
41
0.018000
0
VERTEX
8
0
10
-6.740000
20
-8.250000
0
VERTEX
8
0
10
-6.740000
20
-8.050000
0
SEQEND
8
0
0
POLYLINE
8
0
66
1
40
0.018000
41
0.018000
0
VERTEX
8
0
10
-3.820000
20
-8.250000
0
VERTEX
8
0
10
-3.820000
20
-8.050000
0
SEQEND
8
0
0
POLYLINE
8
0
66
1
40
0.018000
41
0.018000
0
VERTEX
8
0
10
-5.280000
20
-8.250000
0
VERTEX
8
0
10
-5.280000
20
-8.050000
0
SEQEND
8
0
0
POLYLINE
8
0
66
1
40
0.018000
41
0.018000
0
VERTEX
8
0
10
-2.360000
20
-8.250000
0
VERTEX
8
0
10
-2.360000
20
-8.050000
0
SEQEND
8
0
0
POLYLINE
8
0
66
1
40
0.018000
41
0.018000
0
VERTEX
8
0
10
-3.820000
20
-8.250000
0
VERTEX
8
0
10
-3.820000
20
-8.050000
0
SEQEND
8
0
0
POLYLINE
8
0
66
1
40
0.018000
41
0.018000
0
VERTEX
8
0
10
-0.900000
20
-8.250000
0
VERTEX
8
0
10
-0.900000
20
-8.050000
0
SEQEND
8
0
0
POLYLINE
8
0
66
1
40
0.018000
41
0.018000
0
VERTEX
8
0
10
-2.360000
20
-8.250000
0
VERTEX
8
0
10
-2.360000
20
-8.050000
0
SEQEND
8
0
0
POLYLINE
8
0
66
1
40
0.018000
41
0.018000
0
VERTEX
8
0
10
0.560000
20
-8.250000
0
VERTEX
8
0
10
0.560000
20
-8.050000
0
SEQEND
8
0
0
POLYLINE
8
0
66
1
40
0.018000
41
0.018000
0
VERTEX
8
0
10
-0.900000
20
-8.250000
0
VERTEX
8
0
10
-0.900000
20
-8.050000
0
SEQEND
8
0
0
POLYLINE
8
0
66
1
40
0.018000
41
0.018000
0
VERTEX
8
0
10
2.020000
20
-8.250000
0
VERTEX
8
0
10
2.020000
20
-8.050000
0
SEQEND
8
0
0
POLYLINE
8
0
66
1
40
0.018000
41
0.018000
0
VERTEX
8
0
10
0.560000
20
-8.250000
0
VERTEX
8
0
10
0.560000
20
-8.050000
0
SEQEND
8
0
0
POLYLINE
8
0
66
1
40
0.018000
41
0.018000
0
VERTEX
8
0
10
3.480000
20
-8.250000
0
VERTEX
8
0
10
3.480000
20
-8.050000
0
SEQEND
8
0
0
POLYLINE
8
0
66
1
40
0.018000
41
0.018000
0
VERTEX
8
0
10
2.020000
20
-8.250000
0
VERTEX
8
0
10
2.020000
20
-8.050000
0
SEQEND
8
0
0
POLYLINE
8
0
66
1
40
0.018000
41
0.018000
0
VERTEX
8
0
10
4.940000
20
-8.250000
0
VERTEX
8
0
10
4.940000
20
-8.050000
0
SEQEND
8
0
0
POLYLINE
8
0
66
1
40
0.018000
41
0.018000
0
VERTEX
8
0
10
3.480000
20
-8.250000
0
VERTEX
8
0
10
3.480000
20
-8.050000
0
SEQEND
8
0
0
POLYLINE
8
0
66
1
40
0.018000
41
0.018000
0
VERTEX
8
0
10
6.400000
20
-8.250000
0
VERTEX
8
0
10
6.400000
20
-8.050000
0
SEQEND
8
0
0
POLYLINE
8
0
66
1
40
0.018000
41
0.018000
0
VERTEX
8
0
10
4.940000
20
-8.250000
0
VERTEX
8
0
10
4.940000
20
-8.050000
0
SEQEND
8
0
0
POLYLINE
8
0
66
1
40
0.018000
41
0.018000
0
VERTEX
8
0
10
-8.200000
20
1.550000
0
VERTEX
8
0
10
-8.400000
20
1.550000
0
SEQEND
8
0
0
POLYLINE
8
0
66
1
40
0.018000
41
0.018000
0
VERTEX
8
0
10
-8.200000
20
0.590000
0
VERTEX
8
0
10
-8.400000
20
0.590000
0
SEQEND
8
0
0
POLYLINE
8
0
66
1
40
0.018000
41
0.018000
0
VERTEX
8
0
10
-8.200000
20
0.590000
0
VERTEX
8
0
10
-8.400000
20
0.590000
0
SEQEND
8
0
0
POLYLINE
8
0
66
1
40
0.018000
41
0.018000
0
VERTEX
8
0
10
-8.200000
20
-0.370000
0
VERTEX
8
0
10
-8.400000
20
-0.370000
0
SEQEND
8
0
0
POLYLINE
8
0
66
1
40
0.018000
41
0.018000
0
VERTEX
8
0
10
-8.200000
20
-0.370000
0
VERTEX
8
0
10
-8.400000
20
-0.370000
0
SEQEND
8
0
0
POLYLINE
8
0
66
1
40
0.018000
41
0.018000
0
VERTEX
8
0
10
-8.200000
20
-1.330000
0
VERTEX
8
0
10
-8.400000
20
-1.330000
0
SEQEND
8
0
0
POLYLINE
8
0
66
1
40
0.018000
41
0.018000
0
VERTEX
8
0
10
-8.200000
20
-1.330000
0
VERTEX
8
0
10
-8.400000
20
-1.330000
0
SEQEND
8
0
0
POLYLINE
8
0
66
1
40
0.018000
41
0.018000
0
VERTEX
8
0
10
-8.200000
20
-2.290000
0
VERTEX
8
0
10
-8.400000
20
-2.290000
0
SEQEND
8
0
0
POLYLINE
8
0
66
1
40
0.018000
41
0.018000
0
VERTEX
8
0
10
-8.200000
20
-2.290000
0
VERTEX
8
0
10
-8.400000
20
-2.290000
0
SEQEND
8
0
0
POLYLINE
8
0
66
1
40
0.018000
41
0.018000
0
VERTEX
8
0
10
-8.200000
20
-3.250000
0
VERTEX
8
0
10
-8.400000
20
-3.250000
0
SEQEND
8
0
0
POLYLINE
8
0
66
1
40
0.018000
41
0.018000
0
VERTEX
8
0
10
-8.200000
20
-3.250000
0
VERTEX
8
0
10
-8.400000
20
-3.250000
0
SEQEND
8
0
0
POLYLINE
8
0
66
1
40
0.018000
41
0.018000
0
VERTEX
8
0
10
-8.200000
20
-4.210000
0
VERTEX
8
0
10
-8.400000
20
-4.210000
0
SEQEND
8
0
0
POLYLINE
8
0
66
1
40
0.018000
41
0.018000
0
VERTEX
8
0
10
-8.200000
20
-4.210000
0
VERTEX
8
0
10
-8.400000
20
-4.210000
0
SEQEND
8
0
0
POLYLINE
8
0
66
1
40
0.018000
41
0.018000
0
VERTEX
8
0
10
-8.200000
20
-5.170000
0
VERTEX
8
0
10
-8.400000
20
-5.170000
0
SEQEND
8
0
0
POLYLINE
8
0
66
1
40
0.018000
41
0.018000
0
VERTEX
8
0
10
-8.200000
20
-5.170000
0
VERTEX
8
0
10
-8.400000
20
-5.170000
0
SEQEND
8
0
0
POLYLINE
8
0
66
1
40
0.018000
41
0.018000
0
VERTEX
8
0
10
-8.200000
20
-6.130000
0
VERTEX
8
0
10
-8.400000
20
-6.130000
0
SEQEND
8
0
0
POLYLINE
8
0
66
1
40
0.018000
41
0.018000
0
VERTEX
8
0
10
-8.200000
20
-6.130000
0
VERTEX
8
0
10
-8.400000
20
-6.130000
0
SEQEND
8
0
0
POLYLINE
8
0
66
1
40
0.018000
41
0.018000
0
VERTEX
8
0
10
-8.200000
20
-7.090000
0
VERTEX
8
0
10
-8.400000
20
-7.090000
0
SEQEND
8
0
0
POLYLINE
8
0
66
1
40
0.018000
41
0.018000
0
VERTEX
8
0
10
-8.200000
20
-7.090000
0
VERTEX
8
0
10
-8.400000
20
-7.090000
0
SEQEND
8
0
0
POLYLINE
8
0
66
1
40
0.018000
41
0.018000
0
VERTEX
8
0
10
-8.200000
20
-8.050000
0
VERTEX
8
0
10
-8.400000
20
-8.050000
0
SEQEND
8
0
0
POLYLINE
8
0
66
1
40
0.018000
41
0.018000
0
VERTEX
8
0
10
6.600000
20
1.550000
0
VERTEX
8
0
10
6.400000
20
1.550000
0
SEQEND
8
0
0
POLYLINE
8
0
66
1
40
0.018000
41
0.018000
0
VERTEX
8
0
10
6.600000
20
0.590000
0
VERTEX
8
0
10
6.400000
20
0.590000
0
SEQEND
8
0
0
POLYLINE
8
0
66
1
40
0.018000
41
0.018000
0
VERTEX
8
0
10
6.600000
20
0.590000
0
VERTEX
8
0
10
6.400000
20
0.590000
0
SEQEND
8
0
0
POLYLINE
8
0
66
1
40
0.018000
41
0.018000
0
VERTEX
8
0
10
6.600000
20
-0.370000
0
VERTEX
8
0
10
6.400000
20
-0.370000
0
SEQEND
8
0
0
POLYLINE
8
0
66
1
40
0.018000
41
0.018000
0
VERTEX
8
0
10
6.600000
20
-0.370000
0
VERTEX
8
0
10
6.400000
20
-0.370000
0
SEQEND
8
0
0
POLYLINE
8
0
66
1
40
0.018000
41
0.018000
0
VERTEX
8
0
10
6.600000
20
-1.330000
0
VERTEX
8
0
10
6.400000
20
-1.330000
0
SEQEND
8
0
0
POLYLINE
8
0
66
1
40
0.018000
41
0.018000
0
VERTEX
8
0
10
6.600000
20
-1.330000
0
VERTEX
8
0
10
6.400000
20
-1.330000
0
SEQEND
8
0
0
POLYLINE
8
0
66
1
40
0.018000
41
0.018000
0
VERTEX
8
0
10
6.600000
20
-2.290000
0
VERTEX
8
0
10
6.400000
20
-2.290000
0
SEQEND
8
0
0
POLYLINE
8
0
66
1
40
0.018000
41
0.018000
0
VERTEX
8
0
10
6.600000
20
-2.290000
0
VERTEX
8
0
10
6.400000
20
-2.290000
0
SEQEND
8
0
0
POLYLINE
8
0
66
1
40
0.018000
41
0.018000
0
VERTEX
8
0
10
6.600000
20
-3.250000
0
VERTEX
8
0
10
6.400000
20
-3.250000
0
SEQEND
8
0
0
POLYLINE
8
0
66
1
40
0.018000
41
0.018000
0
VERTEX
8
0
10
6.600000
20
-3.250000
0
VERTEX
8
0
10
6.400000
20
-3.250000
0
SEQEND
8
0
0
POLYLINE
8
0
66
1
40
0.018000
41
0.018000
0
VERTEX
8
0
10
6.600000
20
-4.210000
0
VERTEX
8
0
10
6.400000
20
-4.210000
0
SEQEND
8
0
0
POLYLINE
8
0
66
1
40
0.018000
41
0.018000
0
VERTEX
8
0
10
6.600000
20
-4.210000
0
VERTEX
8
0
10
6.400000
20
-4.210000
0
SEQEND
8
0
0
POLYLINE
8
0
66
1
40
0.018000
41
0.018000
0
VERTEX
8
0
10
6.600000
20
-5.170000
0
VERTEX
8
0
10
6.400000
20
-5.170000
0
SEQEND
8
0
0
POLYLINE
8
0
66
1
40
0.018000
41
0.018000
0
VERTEX
8
0
10
6.600000
20
-5.170000
0
VERTEX
8
0
10
6.400000
20
-5.170000
0
SEQEND
8
0
0
POLYLINE
8
0
66
1
40
0.018000
41
0.018000
0
VERTEX
8
0
10
6.600000
20
-6.130000
0
VERTEX
8
0
10
6.400000
20
-6.130000
0
SEQEND
8
0
0
POLYLINE
8
0
66
1
40
0.018000
41
0.018000
0
VERTEX
8
0
10
6.600000
20
-6.130000
0
VERTEX
8
0
10
6.400000
20
-6.130000
0
SEQEND
8
0
0
POLYLINE
8
0
66
1
40
0.018000
41
0.018000
0
VERTEX
8
0
10
6.600000
20
-7.090000
0
VERTEX
8
0
10
6.400000
20
-7.090000
0
SEQEND
8
0
0
POLYLINE
8
0
66
1
40
0.018000
41
0.018000
0
VERTEX
8
0
10
6.600000
20
-7.090000
0
VERTEX
8
0
10
6.400000
20
-7.090000
0
SEQEND
8
0
0
POLYLINE
8
0
66
1
40
0.018000
41
0.018000
0
VERTEX
8
0
10
6.600000
20
-8.050000
0
VERTEX
8
0
10
6.400000
20
-8.050000
0
SEQEND
8
0
0
POLYLINE
8
0
66
1
40
0.018000
41
0.018000
0
VERTEX
8
0
10
-8.200000
20
-8.050000
0
VERTEX
8
0
10
-8.200000
20
-8.250000
0
SEQEND
8
0
0
TEXT
8
8388608
10
-7.510000
20
1.612000
40
0.096000
41
0.833333
1
A
0
TEXT
8
8388608
10
-6.050000
20
1.612000
40
0.096000
41
0.833333
1
B
0
TEXT
8
8388608
10
-4.590000
20
1.612000
40
0.096000
41
0.833333
1
C
0
TEXT
8
8388608
10
-3.130000
20
1.612000
40
0.096000
41
0.833333
1
D
0
TEXT
8
8388608
10
-1.670000
20
1.612000
40
0.096000
41
0.833333
1
E
0
TEXT
8
8388608
10
-0.210000
20
1.612000
40
0.096000
41
0.833333
1
F
0
TEXT
8
8388608
10
1.250000
20
1.612000
40
0.096000
41
0.833333
1
G
0
TEXT
8
8388608
10
2.710000
20
1.612000
40
0.096000
41
0.833333
1
H
0
TEXT
8
8388608
10
4.170000
20
1.612000
40
0.096000
41
0.833333
1
J
0
TEXT
8
8388608
10
5.630000
20
1.612000
40
0.096000
41
0.833333
1
K
0
TEXT
8
8388608
10
-6.060000
20
-8.198000
40
0.096000
41
0.833333
1
B
0
TEXT
8
8388608
10
-4.600000
20
-8.198000
40
0.096000
41
0.833333
1
C
0
TEXT
8
8388608
10
-3.140000
20
-8.198000
40
0.096000
41
0.833333
1
D
0
TEXT
8
8388608
10
-1.680000
20
-8.198000
40
0.096000
41
0.833333
1
E
0
TEXT
8
8388608
10
-0.220000
20
-8.198000
40
0.096000
41
0.833333
1
F
0
TEXT
8
8388608
10
1.240000
20
-8.198000
40
0.096000
41
0.833333
1
G
0
TEXT
8
8388608
10
2.700000
20
-8.198000
40
0.096000
41
0.833333
1
H
0
TEXT
8
8388608
10
4.160000
20
-8.198000
40
0.096000
41
0.833333
1
J
0
TEXT
8
8388608
10
5.620000
20
-8.198000
40
0.096000
41
0.833333
1
K
0
TEXT
8
8388608
10
-7.520000
20
-8.198000
40
0.096000
41
0.833333
1
A
0
TEXT
8
8388608
10
-8.340000
20
1.022000
40
0.096000
41
0.833333
1
0
0
TEXT
8
8388608
10
-8.340000
20
0.062000
40
0.096000
41
0.833333
1
1
0
TEXT
8
8388608
10
-8.340000
20
-0.898000
40
0.096000
41
0.833333
1
2
0
TEXT
8
8388608
10
-8.340000
20
-2.818000
40
0.096000
41
0.833333
1
4
0
TEXT
8
8388608
10
-8.340000
20
-3.778000
40
0.096000
41
0.833333
1
5
0
TEXT
8
8388608
10
-8.340000
20
-4.738000
40
0.096000
41
0.833333
1
6
0
TEXT
8
8388608
10
-8.340000
20
-5.698000
40
0.096000
41
0.833333
1
7
0
TEXT
8
8388608
10
-8.340000
20
-6.658000
40
0.096000
41
0.833333
1
8
0
TEXT
8
8388608
10
-8.340000
20
-7.618000
40
0.096000
41
0.833333
1
9
0
TEXT
8
8388608
10
6.460000
20
1.022000
40
0.096000
41
0.833333
1
0
0
TEXT
8
8388608
10
6.460000
20
0.062000
40
0.096000
41
0.833333
1
1
0
TEXT
8
8388608
10
6.460000
20
-0.908000
40
0.096000
41
0.833333
1
2
0
TEXT
8
8388608
10
6.460000
20
-1.858000
40
0.096000
41
0.833333
1
3
0
TEXT
8
8388608
10
6.460000
20
-2.818000
40
0.096000
41
0.833333
1
4
0
TEXT
8
8388608
10
6.460000
20
-3.778000
40
0.096000
41
0.833333
1
5
0
TEXT
8
8388608
10
6.460000
20
-4.738000
40
0.096000
41
0.833333
1
6
0
TEXT
8
8388608
10
6.460000
20
-5.698000
40
0.096000
41
0.833333
1
7
0
TEXT
8
8388608
10
6.460000
20
-6.658000
40
0.096000
41
0.833333
1
8
0
TEXT
8
8388608
10
-8.340000
20
-1.858000
40
0.096000
41
0.833333
1
3
0
TEXT
8
8388608
10
6.460000
20
-7.618000
40
0.096000
41
0.833333
1
9
0
POLYLINE
8
0
66
1
40
0.016000
41
0.016000
0
VERTEX
8
0
10
1.950000
20
-8.050000
0
VERTEX
8
0
10
6.400000
20
-8.050000
0
VERTEX
8
0
10
6.400000
20
-6.650000
0
VERTEX
8
0
10
1.950000
20
-6.650000
0
VERTEX
8
0
10
1.950000
20
-8.050000
0
SEQEND
8
0
0
POLYLINE
8
0
66
1
40
0.016000
41
0.016000
0
VERTEX
8
0
10
1.950000
20
-7.000000
0
VERTEX
8
0
10
5.050000
20
-7.000000
0
SEQEND
8
0
0
POLYLINE
8
0
66
1
40
0.016000
41
0.016000
0
VERTEX
8
0
10
1.950000
20
-7.350000
0
VERTEX
8
0
10
5.050000
20
-7.350000
0
SEQEND
8
0
0
TEXT
8
0
10
1.870000
20
-7.580000
40
0.120000
41
0.666667
1
Designed By:
0
TEXT
8
12582912
10
2.950000
20
-7.600000
40
0.160000
41
0.500000
1
Ismail SORAN
0
POLYLINE
8
0
66
1
40
0.016000
41
0.016000
0
VERTEX
8
0
10
1.950000
20
-7.700000
0
VERTEX
8
0
10
5.050000
20
-7.700000
0
SEQEND
8
0
0
TEXT
8
0
10
1.950000
20
-7.910000
40
0.120000
41
0.666667
1
Date:
0
TEXT
8
0
10
3.190000
20
-7.910000
40
0.120000
41
0.666667
1
Rev:
0
POLYLINE
8
0
66
1
40
0.016000
41
0.016000
0
VERTEX
8
0
10
5.050000
20
-6.650000
0
VERTEX
8
0
10
5.050000
20
-8.050000
0
SEQEND
8
0
0
POLYLINE
8
0
66
1
40
0.016000
41
0.016000
0
VERTEX
8
0
10
3.150000
20
-7.700000
0
VERTEX
8
0
10
3.150000
20
-8.050000
0
SEQEND
8
0
0
TEXT
8
0
10
3.950000
20
-7.910000
40
0.120000
41
0.666667
1
Page:
0
TEXT
8
12582912
10
4.450000
20
-7.930000
40
0.160000
41
0.500000
1
1/1
0
POLYLINE
8
0
66
1
40
0.016000
41
0.016000
0
VERTEX
8
0
10
3.950000
20
-7.700000
0
VERTEX
8
0
10
3.950000
20
-8.050000
0
SEQEND
8
0
0
POLYLINE
8
0
66
1
40
0.016000
41
0.016000
0
VERTEX
8
0
10
1.950000
20
-7.000000
0
VERTEX
8
0
10
5.050000
20
-7.000000
0
VERTEX
8
0
10
5.050000
20
-6.650000
0
VERTEX
8
0
10
1.950000
20
-6.650000
0
VERTEX
8
0
10
1.950000
20
-7.000000
0
SEQEND
8
0
0
POLYLINE
8
0
66
1
40
0.016000
41
0.016000
0
VERTEX
8
0
10
1.950000
20
-7.350000
0
VERTEX
8
0
10
5.050000
20
-7.350000
0
SEQEND
8
0
0
POLYLINE
8
0
66
1
40
0.016000
41
0.016000
0
VERTEX
8
0
10
1.950000
20
-7.350000
0
VERTEX
8
0
10
5.050000
20
-7.350000
0
VERTEX
8
0
10
5.050000
20
-7.000000
0
VERTEX
8
0
10
1.950000
20
-7.000000
0
VERTEX
8
0
10
1.950000
20
-7.350000
0
SEQEND
8
0
0
TEXT
8
0
10
1.820000
20
-6.880000
40
0.120000
41
0.666667
1
Sheet Title:
0
TEXT
8
16711680
10
2.730000
20
-6.896000
40
0.152000
41
0.526316
1
Design01
0
TEXT
8
0
10
1.740000
20
-7.250000
40
0.120000
41
0.666667
1
Project Title:
0
TEXT
8
16711680
10
2.730000
20
-7.266000
40
0.152000
41
0.526316
1
Sheet01
0
POLYLINE
8
0
66
1
40
0.010000
41
0.010000
0
VERTEX
8
0
10
0.950000
20
-0.550000
0
VERTEX
8
0
10
-0.950000
20
-0.550000
0
VERTEX
8
0
10
-0.970000
20
-0.548000
0
VERTEX
8
0
10
-0.989000
20
-0.542000
0
VERTEX
8
0
10
-1.006000
20
-0.533000
0
VERTEX
8
0
10
-1.021000
20
-0.521000
0
VERTEX
8
0
10
-1.033000
20
-0.506000
0
VERTEX
8
0
10
-1.042000
20
-0.489000
0
VERTEX
8
0
10
-1.048000
20
-0.470000
0
VERTEX
8
0
10
-1.050000
20
-0.450000
0
VERTEX
8
0
10
-1.050000
20
0.450000
0
VERTEX
8
0
10
-1.048000
20
0.470000
0
VERTEX
8
0
10
-1.042000
20
0.489000
0
VERTEX
8
0
10
-1.033000
20
0.506000
0
VERTEX
8
0
10
-1.021000
20
0.521000
0
VERTEX
8
0
10
-1.006000
20
0.533000
0
VERTEX
8
0
10
-0.989000
20
0.542000
0
VERTEX
8
0
10
-0.970000
20
0.548000
0
VERTEX
8
0
10
-0.950000
20
0.550000
0
VERTEX
8
0
10
0.950000
20
0.550000
0
VERTEX
8
0
10
0.970000
20
0.548000
0
VERTEX
8
0
10
0.989000
20
0.542000
0
VERTEX
8
0
10
1.006000
20
0.533000
0
VERTEX
8
0
10
1.021000
20
0.521000
0
VERTEX
8
0
10
1.033000
20
0.506000
0
VERTEX
8
0
10
1.042000
20
0.489000
0
VERTEX
8
0
10
1.048000
20
0.470000
0
VERTEX
8
0
10
1.050000
20
0.450000
0
VERTEX
8
0
10
1.050000
20
-0.450000
0
VERTEX
8
0
10
1.048000
20
-0.470000
0
VERTEX
8
0
10
1.042000
20
-0.489000
0
VERTEX
8
0
10
1.033000
20
-0.506000
0
VERTEX
8
0
10
1.021000
20
-0.521000
0
VERTEX
8
0
10
1.006000
20
-0.533000
0
VERTEX
8
0
10
0.989000
20
-0.542000
0
VERTEX
8
0
10
0.970000
20
-0.548000
0
VERTEX
8
0
10
0.950000
20
-0.550000
0
SEQEND
8
0
0
POLYLINE
8
0
66
1
40
0.010000
41
0.010000
0
VERTEX
8
0
10
-0.950000
20
-0.450000
0
VERTEX
8
0
10
0.950000
20
-0.450000
0
VERTEX
8
0
10
0.950000
20
0.450000
0
VERTEX
8
0
10
-0.950000
20
0.450000
0
VERTEX
8
0
10
-0.950000
20
-0.450000
0
VERTEX
8
0
10
0.950000
20
-0.450000
0
VERTEX
8
0
10
0.950000
20
0.450000
0
VERTEX
8
0
10
-0.950000
20
0.450000
0
VERTEX
8
0
10
-0.950000
20
-0.450000
0
VERTEX
8
0
10
0.950000
20
-0.450000
0
VERTEX
8
0
10
0.950000
20
0.450000
0
VERTEX
8
0
10
-0.950000
20
0.450000
0
VERTEX
8
0
10
-0.950000
20
-0.450000
0
SEQEND
8
0
0
POLYLINE
8
0
66
1
40
0.012000
41
0.012000
0
VERTEX
8
0
10
0.850000
20
-0.750000
0
VERTEX
8
0
10
0.850000
20
-0.550000
0
SEQEND
8
0
0
TEXT
8
0
10
0.840000
20
-0.730000
40
0.080000
41
1.000000
50
90.000000
1
1
0
POLYLINE
8
0
66
1
40
0.012000
41
0.012000
0
VERTEX
8
0
10
0.750000
20
-0.750000
0
VERTEX
8
0
10
0.750000
20
-0.550000
0
SEQEND
8
0
0
TEXT
8
0
10
0.740000
20
-0.730000
40
0.080000
41
1.000000
50
90.000000
1
2
0
POLYLINE
8
0
66
1
40
0.012000
41
0.012000
0
VERTEX
8
0
10
0.650000
20
-0.750000
0
VERTEX
8
0
10
0.650000
20
-0.550000
0
SEQEND
8
0
0
TEXT
8
0
10
0.640000
20
-0.730000
40
0.080000
41
1.000000
50
90.000000
1
3
0
POLYLINE
8
0
66
1
40
0.012000
41
0.012000
0
VERTEX
8
0
10
0.550000
20
-0.750000
0
VERTEX
8
0
10
0.550000
20
-0.550000
0
SEQEND
8
0
0
TEXT
8
0
10
0.540000
20
-0.730000
40
0.080000
41
1.000000
50
90.000000
1
4
0
POLYLINE
8
0
66
1
40
0.012000
41
0.012000
0
VERTEX
8
0
10
0.450000
20
-0.750000
0
VERTEX
8
0
10
0.450000
20
-0.550000
0
SEQEND
8
0
0
TEXT
8
0
10
0.440000
20
-0.730000
40
0.080000
41
1.000000
50
90.000000
1
5
0
POLYLINE
8
0
66
1
40
0.012000
41
0.012000
0
VERTEX
8
0
10
0.350000
20
-0.750000
0
VERTEX
8
0
10
0.350000
20
-0.550000
0
SEQEND
8
0
0
TEXT
8
0
10
0.340000
20
-0.730000
40
0.080000
41
1.000000
50
90.000000
1
6
0
POLYLINE
8
0
66
1
40
0.012000
41
0.012000
0
VERTEX
8
0
10
0.250000
20
-0.750000
0
VERTEX
8
0
10
0.250000
20
-0.550000
0
SEQEND
8
0
0
TEXT
8
0
10
0.240000
20
-0.730000
40
0.080000
41
1.000000
50
90.000000
1
7
0
POLYLINE
8
0
66
1
40
0.012000
41
0.012000
0
VERTEX
8
0
10
0.150000
20
-0.750000
0
VERTEX
8
0
10
0.150000
20
-0.550000
0
SEQEND
8
0
0
TEXT
8
0
10
0.140000
20
-0.730000
40
0.080000
41
1.000000
50
90.000000
1
8
0
POLYLINE
8
0
66
1
40
0.012000
41
0.012000
0
VERTEX
8
0
10
0.050000
20
-0.750000
0
VERTEX
8
0
10
0.050000
20
-0.550000
0
SEQEND
8
0
0
TEXT
8
0
10
0.040000
20
-0.730000
40
0.080000
41
1.000000
50
90.000000
1
9
0
POLYLINE
8
0
66
1
40
0.012000
41
0.012000
0
VERTEX
8
0
10
-0.050000
20
-0.750000
0
VERTEX
8
0
10
-0.050000
20
-0.550000
0
SEQEND
8
0
0
TEXT
8
0
10
-0.060000
20
-0.810000
40
0.080000
41
1.000000
50
90.000000
1
10
0
POLYLINE
8
0
66
1
40
0.012000
41
0.012000
0
VERTEX
8
0
10
-0.150000
20
-0.750000
0
VERTEX
8
0
10
-0.150000
20
-0.550000
0
SEQEND
8
0
0
TEXT
8
0
10
-0.160000
20
-0.810000
40
0.080000
41
1.000000
50
90.000000
1
11
0
POLYLINE
8
0
66
1
40
0.012000
41
0.012000
0
VERTEX
8
0
10
-0.250000
20
-0.750000
0
VERTEX
8
0
10
-0.250000
20
-0.550000
0
SEQEND
8
0
0
TEXT
8
0
10
-0.260000
20
-0.810000
40
0.080000
41
1.000000
50
90.000000
1
12
0
POLYLINE
8
0
66
1
40
0.012000
41
0.012000
0
VERTEX
8
0
10
-0.350000
20
-0.750000
0
VERTEX
8
0
10
-0.350000
20
-0.550000
0
SEQEND
8
0
0
TEXT
8
0
10
-0.360000
20
-0.810000
40
0.080000
41
1.000000
50
90.000000
1
13
0
POLYLINE
8
0
66
1
40
0.012000
41
0.012000
0
VERTEX
8
0
10
-0.450000
20
-0.750000
0
VERTEX
8
0
10
-0.450000
20
-0.550000
0
SEQEND
8
0
0
TEXT
8
0
10
-0.460000
20
-0.810000
40
0.080000
41
1.000000
50
90.000000
1
14
0
POLYLINE
8
0
66
1
40
0.012000
41
0.012000
0
VERTEX
8
0
10
-0.550000
20
-0.750000
0
VERTEX
8
0
10
-0.550000
20
-0.550000
0
SEQEND
8
0
0
TEXT
8
0
10
-0.560000
20
-0.810000
40
0.080000
41
1.000000
50
90.000000
1
15
0
POLYLINE
8
0
66
1
40
0.012000
41
0.012000
0
VERTEX
8
0
10
-0.650000
20
-0.750000
0
VERTEX
8
0
10
-0.650000
20
-0.550000
0
SEQEND
8
0
0
TEXT
8
0
10
-0.660000
20
-0.810000
40
0.080000
41
1.000000
50
90.000000
1
16
0
POLYLINE
8
0
66
1
40
0.012000
41
0.012000
0
VERTEX
8
0
10
-0.750000
20
-0.750000
0
VERTEX
8
0
10
-0.750000
20
-0.550000
0
SEQEND
8
0
0
TEXT
8
0
10
-0.760000
20
-0.810000
40
0.080000
41
1.000000
50
90.000000
1
17
0
POLYLINE
8
0
66
1
40
0.012000
41
0.012000
0
VERTEX
8
0
10
-0.850000
20
-0.750000
0
VERTEX
8
0
10
-0.850000
20
-0.550000
0
SEQEND
8
0
0
TEXT
8
0
10
-0.860000
20
-0.810000
40
0.080000
41
1.000000
50
90.000000
1
18
0
POLYLINE
8
4210943
66
1
40
0.000000
41
0.000000
0
VERTEX
8
4210943
10
0.780000
20
-0.635000
0
VERTEX
8
4210943
10
0.820000
20
-0.635000
0
SEQEND
8
4210943
0
POLYLINE
8
4210943
66
1
40
0.000000
41
0.000000
0
VERTEX
8
4210943
10
0.780000
20
-0.634000
0
VERTEX
8
4210943
10
0.820000
20
-0.634000
0
SEQEND
8
4210943
0
POLYLINE
8
4210943
66
1
40
0.000000
41
0.000000
0
VERTEX
8
4210943
10
0.780000
20
-0.633000
0
VERTEX
8
4210943
10
0.820000
20
-0.633000
0
SEQEND
8
4210943
0
POLYLINE
8
4210943
66
1
40
0.000000
41
0.000000
0
VERTEX
8
4210943
10
0.780000
20
-0.632000
0
VERTEX
8
4210943
10
0.820000
20
-0.632000
0
SEQEND
8
4210943
0
POLYLINE
8
4210943
66
1
40
0.000000
41
0.000000
0
VERTEX
8
4210943
10
0.780000
20
-0.631000
0
VERTEX
8
4210943
10
0.820000
20
-0.631000
0
SEQEND
8
4210943
0
POLYLINE
8
4210943
66
1
40
0.000000
41
0.000000
0
VERTEX
8
4210943
10
0.780000
20
-0.630000
0
VERTEX
8
4210943
10
0.820000
20
-0.630000
0
SEQEND
8
4210943
0
POLYLINE
8
4210943
66
1
40
0.000000
41
0.000000
0
VERTEX
8
4210943
10
0.780000
20
-0.629000
0
VERTEX
8
4210943
10
0.820000
20
-0.629000
0
SEQEND
8
4210943
0
POLYLINE
8
4210943
66
1
40
0.000000
41
0.000000
0
VERTEX
8
4210943
10
0.780000
20
-0.628000
0
VERTEX
8
4210943
10
0.820000
20
-0.628000
0
SEQEND
8
4210943
0
POLYLINE
8
4210943
66
1
40
0.000000
41
0.000000
0
VERTEX
8
4210943
10
0.780000
20
-0.627000
0
VERTEX
8
4210943
10
0.820000
20
-0.627000
0
SEQEND
8
4210943
0
POLYLINE
8
4210943
66
1
40
0.000000
41
0.000000
0
VERTEX
8
4210943
10
0.780000
20
-0.626000
0
VERTEX
8
4210943
10
0.820000
20
-0.626000
0
SEQEND
8
4210943
0
POLYLINE
8
4210943
66
1
40
0.000000
41
0.000000
0
VERTEX
8
4210943
10
0.780000
20
-0.625000
0
VERTEX
8
4210943
10
0.820000
20
-0.625000
0
SEQEND
8
4210943
0
POLYLINE
8
4210943
66
1
40
0.000000
41
0.000000
0
VERTEX
8
4210943
10
0.780000
20
-0.624000
0
VERTEX
8
4210943
10
0.820000
20
-0.624000
0
SEQEND
8
4210943
0
POLYLINE
8
4210943
66
1
40
0.000000
41
0.000000
0
VERTEX
8
4210943
10
0.780000
20
-0.623000
0
VERTEX
8
4210943
10
0.820000
20
-0.623000
0
SEQEND
8
4210943
0
POLYLINE
8
4210943
66
1
40
0.000000
41
0.000000
0
VERTEX
8
4210943
10
0.780000
20
-0.622000
0
VERTEX
8
4210943
10
0.820000
20
-0.622000
0
SEQEND
8
4210943
0
POLYLINE
8
4210943
66
1
40
0.000000
41
0.000000
0
VERTEX
8
4210943
10
0.780000
20
-0.621000
0
VERTEX
8
4210943
10
0.820000
20
-0.621000
0
SEQEND
8
4210943
0
POLYLINE
8
4210943
66
1
40
0.000000
41
0.000000
0
VERTEX
8
4210943
10
0.780000
20
-0.620000
0
VERTEX
8
4210943
10
0.820000
20
-0.620000
0
SEQEND
8
4210943
0
POLYLINE
8
4210943
66
1
40
0.000000
41
0.000000
0
VERTEX
8
4210943
10
0.780000
20
-0.619000
0
VERTEX
8
4210943
10
0.820000
20
-0.619000
0
SEQEND
8
4210943
0
POLYLINE
8
4210943
66
1
40
0.000000
41
0.000000
0
VERTEX
8
4210943
10
0.780000
20
-0.618000
0
VERTEX
8
4210943
10
0.820000
20
-0.618000
0
SEQEND
8
4210943
0
POLYLINE
8
4210943
66
1
40
0.000000
41
0.000000
0
VERTEX
8
4210943
10
0.780000
20
-0.617000
0
VERTEX
8
4210943
10
0.820000
20
-0.617000
0
SEQEND
8
4210943
0
POLYLINE
8
4210943
66
1
40
0.000000
41
0.000000
0
VERTEX
8
4210943
10
0.780000
20
-0.616000
0
VERTEX
8
4210943
10
0.820000
20
-0.616000
0
SEQEND
8
4210943
0
POLYLINE
8
4210943
66
1
40
0.000000
41
0.000000
0
VERTEX
8
4210943
10
0.780000
20
-0.615000
0
VERTEX
8
4210943
10
0.820000
20
-0.615000
0
SEQEND
8
4210943
0
POLYLINE
8
4210943
66
1
40
0.000000
41
0.000000
0
VERTEX
8
4210943
10
0.780000
20
-0.614000
0
VERTEX
8
4210943
10
0.820000
20
-0.614000
0
SEQEND
8
4210943
0
POLYLINE
8
4210943
66
1
40
0.000000
41
0.000000
0
VERTEX
8
4210943
10
0.780000
20
-0.613000
0
VERTEX
8
4210943
10
0.820000
20
-0.613000
0
SEQEND
8
4210943
0
POLYLINE
8
4210943
66
1
40
0.000000
41
0.000000
0
VERTEX
8
4210943
10
0.780000
20
-0.612000
0
VERTEX
8
4210943
10
0.820000
20
-0.612000
0
SEQEND
8
4210943
0
POLYLINE
8
4210943
66
1
40
0.000000
41
0.000000
0
VERTEX
8
4210943
10
0.780000
20
-0.611000
0
VERTEX
8
4210943
10
0.820000
20
-0.611000
0
SEQEND
8
4210943
0
POLYLINE
8
4210943
66
1
40
0.000000
41
0.000000
0
VERTEX
8
4210943
10
0.780000
20
-0.610000
0
VERTEX
8
4210943
10
0.820000
20
-0.610000
0
SEQEND
8
4210943
0
POLYLINE
8
4210943
66
1
40
0.000000
41
0.000000
0
VERTEX
8
4210943
10
0.780000
20
-0.609000
0
VERTEX
8
4210943
10
0.820000
20
-0.609000
0
SEQEND
8
4210943
0
POLYLINE
8
4210943
66
1
40
0.000000
41
0.000000
0
VERTEX
8
4210943
10
0.780000
20
-0.608000
0
VERTEX
8
4210943
10
0.820000
20
-0.608000
0
SEQEND
8
4210943
0
POLYLINE
8
4210943
66
1
40
0.000000
41
0.000000
0
VERTEX
8
4210943
10
0.780000
20
-0.607000
0
VERTEX
8
4210943
10
0.820000
20
-0.607000
0
SEQEND
8
4210943
0
POLYLINE
8
4210943
66
1
40
0.000000
41
0.000000
0
VERTEX
8
4210943
10
0.780000
20
-0.606000
0
VERTEX
8
4210943
10
0.820000
20
-0.606000
0
SEQEND
8
4210943
0
POLYLINE
8
4210943
66
1
40
0.000000
41
0.000000
0
VERTEX
8
4210943
10
0.780000
20
-0.605000
0
VERTEX
8
4210943
10
0.820000
20
-0.605000
0
SEQEND
8
4210943
0
POLYLINE
8
4210943
66
1
40
0.000000
41
0.000000
0
VERTEX
8
4210943
10
0.780000
20
-0.604000
0
VERTEX
8
4210943
10
0.820000
20
-0.604000
0
SEQEND
8
4210943
0
POLYLINE
8
4210943
66
1
40
0.000000
41
0.000000
0
VERTEX
8
4210943
10
0.780000
20
-0.603000
0
VERTEX
8
4210943
10
0.820000
20
-0.603000
0
SEQEND
8
4210943
0
POLYLINE
8
4210943
66
1
40
0.000000
41
0.000000
0
VERTEX
8
4210943
10
0.780000
20
-0.602000
0
VERTEX
8
4210943
10
0.820000
20
-0.602000
0
SEQEND
8
4210943
0
POLYLINE
8
4210943
66
1
40
0.000000
41
0.000000
0
VERTEX
8
4210943
10
0.780000
20
-0.601000
0
VERTEX
8
4210943
10
0.820000
20
-0.601000
0
SEQEND
8
4210943
0
POLYLINE
8
4210943
66
1
40
0.000000
41
0.000000
0
VERTEX
8
4210943
10
0.780000
20
-0.600000
0
VERTEX
8
4210943
10
0.820000
20
-0.600000
0
SEQEND
8
4210943
0
POLYLINE
8
4210943
66
1
40
0.000000
41
0.000000
0
VERTEX
8
4210943
10
0.780000
20
-0.599000
0
VERTEX
8
4210943
10
0.820000
20
-0.599000
0
SEQEND
8
4210943
0
POLYLINE
8
4210943
66
1
40
0.000000
41
0.000000
0
VERTEX
8
4210943
10
0.780000
20
-0.598000
0
VERTEX
8
4210943
10
0.820000
20
-0.598000
0
SEQEND
8
4210943
0
POLYLINE
8
4210943
66
1
40
0.000000
41
0.000000
0
VERTEX
8
4210943
10
0.780000
20
-0.597000
0
VERTEX
8
4210943
10
0.820000
20
-0.597000
0
SEQEND
8
4210943
0
POLYLINE
8
4210943
66
1
40
0.000000
41
0.000000
0
VERTEX
8
4210943
10
0.780000
20
-0.596000
0
VERTEX
8
4210943
10
0.820000
20
-0.596000
0
SEQEND
8
4210943
0
POLYLINE
8
4210943
66
1
40
0.000000
41
0.000000
0
VERTEX
8
4210943
10
0.780000
20
-0.595000
0
VERTEX
8
4210943
10
0.820000
20
-0.595000
0
SEQEND
8
4210943
0
POLYLINE
8
16728128
66
1
40
0.000000
41
0.000000
0
VERTEX
8
16728128
10
0.680000
20
-0.635000
0
VERTEX
8
16728128
10
0.720000
20
-0.635000
0
SEQEND
8
16728128
0
POLYLINE
8
16728128
66
1
40
0.000000
41
0.000000
0
VERTEX
8
16728128
10
0.680000
20
-0.634000
0
VERTEX
8
16728128
10
0.720000
20
-0.634000
0
SEQEND
8
16728128
0
POLYLINE
8
16728128
66
1
40
0.000000
41
0.000000
0
VERTEX
8
16728128
10
0.680000
20
-0.633000
0
VERTEX
8
16728128
10
0.720000
20
-0.633000
0
SEQEND
8
16728128
0
POLYLINE
8
16728128
66
1
40
0.000000
41
0.000000
0
VERTEX
8
16728128
10
0.680000
20
-0.632000
0
VERTEX
8
16728128
10
0.720000
20
-0.632000
0
SEQEND
8
16728128
0
POLYLINE
8
16728128
66
1
40
0.000000
41
0.000000
0
VERTEX
8
16728128
10
0.680000
20
-0.631000
0
VERTEX
8
16728128
10
0.720000
20
-0.631000
0
SEQEND
8
16728128
0
POLYLINE
8
16728128
66
1
40
0.000000
41
0.000000
0
VERTEX
8
16728128
10
0.680000
20
-0.630000
0
VERTEX
8
16728128
10
0.720000
20
-0.630000
0
SEQEND
8
16728128
0
POLYLINE
8
16728128
66
1
40
0.000000
41
0.000000
0
VERTEX
8
16728128
10
0.680000
20
-0.629000
0
VERTEX
8
16728128
10
0.720000
20
-0.629000
0
SEQEND
8
16728128
0
POLYLINE
8
16728128
66
1
40
0.000000
41
0.000000
0
VERTEX
8
16728128
10
0.680000
20
-0.628000
0
VERTEX
8
16728128
10
0.720000
20
-0.628000
0
SEQEND
8
16728128
0
POLYLINE
8
16728128
66
1
40
0.000000
41
0.000000
0
VERTEX
8
16728128
10
0.680000
20
-0.627000
0
VERTEX
8
16728128
10
0.720000
20
-0.627000
0
SEQEND
8
16728128
0
POLYLINE
8
16728128
66
1
40
0.000000
41
0.000000
0
VERTEX
8
16728128
10
0.680000
20
-0.626000
0
VERTEX
8
16728128
10
0.720000
20
-0.626000
0
SEQEND
8
16728128
0
POLYLINE
8
16728128
66
1
40
0.000000
41
0.000000
0
VERTEX
8
16728128
10
0.680000
20
-0.625000
0
VERTEX
8
16728128
10
0.720000
20
-0.625000
0
SEQEND
8
16728128
0
POLYLINE
8
16728128
66
1
40
0.000000
41
0.000000
0
VERTEX
8
16728128
10
0.680000
20
-0.624000
0
VERTEX
8
16728128
10
0.720000
20
-0.624000
0
SEQEND
8
16728128
0
POLYLINE
8
16728128
66
1
40
0.000000
41
0.000000
0
VERTEX
8
16728128
10
0.680000
20
-0.623000
0
VERTEX
8
16728128
10
0.720000
20
-0.623000
0
SEQEND
8
16728128
0
POLYLINE
8
16728128
66
1
40
0.000000
41
0.000000
0
VERTEX
8
16728128
10
0.680000
20
-0.622000
0
VERTEX
8
16728128
10
0.720000
20
-0.622000
0
SEQEND
8
16728128
0
POLYLINE
8
16728128
66
1
40
0.000000
41
0.000000
0
VERTEX
8
16728128
10
0.680000
20
-0.621000
0
VERTEX
8
16728128
10
0.720000
20
-0.621000
0
SEQEND
8
16728128
0
POLYLINE
8
16728128
66
1
40
0.000000
41
0.000000
0
VERTEX
8
16728128
10
0.680000
20
-0.620000
0
VERTEX
8
16728128
10
0.720000
20
-0.620000
0
SEQEND
8
16728128
0
POLYLINE
8
16728128
66
1
40
0.000000
41
0.000000
0
VERTEX
8
16728128
10
0.680000
20
-0.619000
0
VERTEX
8
16728128
10
0.720000
20
-0.619000
0
SEQEND
8
16728128
0
POLYLINE
8
16728128
66
1
40
0.000000
41
0.000000
0
VERTEX
8
16728128
10
0.680000
20
-0.618000
0
VERTEX
8
16728128
10
0.720000
20
-0.618000
0
SEQEND
8
16728128
0
POLYLINE
8
16728128
66
1
40
0.000000
41
0.000000
0
VERTEX
8
16728128
10
0.680000
20
-0.617000
0
VERTEX
8
16728128
10
0.720000
20
-0.617000
0
SEQEND
8
16728128
0
POLYLINE
8
16728128
66
1
40
0.000000
41
0.000000
0
VERTEX
8
16728128
10
0.680000
20
-0.616000
0
VERTEX
8
16728128
10
0.720000
20
-0.616000
0
SEQEND
8
16728128
0
POLYLINE
8
16728128
66
1
40
0.000000
41
0.000000
0
VERTEX
8
16728128
10
0.680000
20
-0.615000
0
VERTEX
8
16728128
10
0.720000
20
-0.615000
0
SEQEND
8
16728128
0
POLYLINE
8
16728128
66
1
40
0.000000
41
0.000000
0
VERTEX
8
16728128
10
0.680000
20
-0.614000
0
VERTEX
8
16728128
10
0.720000
20
-0.614000
0
SEQEND
8
16728128
0
POLYLINE
8
16728128
66
1
40
0.000000
41
0.000000
0
VERTEX
8
16728128
10
0.680000
20
-0.613000
0
VERTEX
8
16728128
10
0.720000
20
-0.613000
0
SEQEND
8
16728128
0
POLYLINE
8
16728128
66
1
40
0.000000
41
0.000000
0
VERTEX
8
16728128
10
0.680000
20
-0.612000
0
VERTEX
8
16728128
10
0.720000
20
-0.612000
0
SEQEND
8
16728128
0
POLYLINE
8
16728128
66
1
40
0.000000
41
0.000000
0
VERTEX
8
16728128
10
0.680000
20
-0.611000
0
VERTEX
8
16728128
10
0.720000
20
-0.611000
0
SEQEND
8
16728128
0
POLYLINE
8
16728128
66
1
40
0.000000
41
0.000000
0
VERTEX
8
16728128
10
0.680000
20
-0.610000
0
VERTEX
8
16728128
10
0.720000
20
-0.610000
0
SEQEND
8
16728128
0
POLYLINE
8
16728128
66
1
40
0.000000
41
0.000000
0
VERTEX
8
16728128
10
0.680000
20
-0.609000
0
VERTEX
8
16728128
10
0.720000
20
-0.609000
0
SEQEND
8
16728128
0
POLYLINE
8
16728128
66
1
40
0.000000
41
0.000000
0
VERTEX
8
16728128
10
0.680000
20
-0.608000
0
VERTEX
8
16728128
10
0.720000
20
-0.608000
0
SEQEND
8
16728128
0
POLYLINE
8
16728128
66
1
40
0.000000
41
0.000000
0
VERTEX
8
16728128
10
0.680000
20
-0.607000
0
VERTEX
8
16728128
10
0.720000
20
-0.607000
0
SEQEND
8
16728128
0
POLYLINE
8
16728128
66
1
40
0.000000
41
0.000000
0
VERTEX
8
16728128
10
0.680000
20
-0.606000
0
VERTEX
8
16728128
10
0.720000
20
-0.606000
0
SEQEND
8
16728128
0
POLYLINE
8
16728128
66
1
40
0.000000
41
0.000000
0
VERTEX
8
16728128
10
0.680000
20
-0.605000
0
VERTEX
8
16728128
10
0.720000
20
-0.605000
0
SEQEND
8
16728128
0
POLYLINE
8
16728128
66
1
40
0.000000
41
0.000000
0
VERTEX
8
16728128
10
0.680000
20
-0.604000
0
VERTEX
8
16728128
10
0.720000
20
-0.604000
0
SEQEND
8
16728128
0
POLYLINE
8
16728128
66
1
40
0.000000
41
0.000000
0
VERTEX
8
16728128
10
0.680000
20
-0.603000
0
VERTEX
8
16728128
10
0.720000
20
-0.603000
0
SEQEND
8
16728128
0
POLYLINE
8
16728128
66
1
40
0.000000
41
0.000000
0
VERTEX
8
16728128
10
0.680000
20
-0.602000
0
VERTEX
8
16728128
10
0.720000
20
-0.602000
0
SEQEND
8
16728128
0
POLYLINE
8
16728128
66
1
40
0.000000
41
0.000000
0
VERTEX
8
16728128
10
0.680000
20
-0.601000
0
VERTEX
8
16728128
10
0.720000
20
-0.601000
0
SEQEND
8
16728128
0
POLYLINE
8
16728128
66
1
40
0.000000
41
0.000000
0
VERTEX
8
16728128
10
0.680000
20
-0.600000
0
VERTEX
8
16728128
10
0.720000
20
-0.600000
0
SEQEND
8
16728128
0
POLYLINE
8
16728128
66
1
40
0.000000
41
0.000000
0
VERTEX
8
16728128
10
0.680000
20
-0.599000
0
VERTEX
8
16728128
10
0.720000
20
-0.599000
0
SEQEND
8
16728128
0
POLYLINE
8
16728128
66
1
40
0.000000
41
0.000000
0
VERTEX
8
16728128
10
0.680000
20
-0.598000
0
VERTEX
8
16728128
10
0.720000
20
-0.598000
0
SEQEND
8
16728128
0
POLYLINE
8
16728128
66
1
40
0.000000
41
0.000000
0
VERTEX
8
16728128
10
0.680000
20
-0.597000
0
VERTEX
8
16728128
10
0.720000
20
-0.597000
0
SEQEND
8
16728128
0
POLYLINE
8
16728128
66
1
40
0.000000
41
0.000000
0
VERTEX
8
16728128
10
0.680000
20
-0.596000
0
VERTEX
8
16728128
10
0.720000
20
-0.596000
0
SEQEND
8
16728128
0
POLYLINE
8
16728128
66
1
40
0.000000
41
0.000000
0
VERTEX
8
16728128
10
0.680000
20
-0.595000
0
VERTEX
8
16728128
10
0.720000
20
-0.595000
0
SEQEND
8
16728128
0
POLYLINE
8
4210943
66
1
40
0.000000
41
0.000000
0
VERTEX
8
4210943
10
0.280000
20
-0.635000
0
VERTEX
8
4210943
10
0.320000
20
-0.635000
0
SEQEND
8
4210943
0
POLYLINE
8
4210943
66
1
40
0.000000
41
0.000000
0
VERTEX
8
4210943
10
0.280000
20
-0.634000
0
VERTEX
8
4210943
10
0.320000
20
-0.634000
0
SEQEND
8
4210943
0
POLYLINE
8
4210943
66
1
40
0.000000
41
0.000000
0
VERTEX
8
4210943
10
0.280000
20
-0.633000
0
VERTEX
8
4210943
10
0.320000
20
-0.633000
0
SEQEND
8
4210943
0
POLYLINE
8
4210943
66
1
40
0.000000
41
0.000000
0
VERTEX
8
4210943
10
0.280000
20
-0.632000
0
VERTEX
8
4210943
10
0.320000
20
-0.632000
0
SEQEND
8
4210943
0
POLYLINE
8
4210943
66
1
40
0.000000
41
0.000000
0
VERTEX
8
4210943
10
0.280000
20
-0.631000
0
VERTEX
8
4210943
10
0.320000
20
-0.631000
0
SEQEND
8
4210943
0
POLYLINE
8
4210943
66
1
40
0.000000
41
0.000000
0
VERTEX
8
4210943
10
0.280000
20
-0.630000
0
VERTEX
8
4210943
10
0.320000
20
-0.630000
0
SEQEND
8
4210943
0
POLYLINE
8
4210943
66
1
40
0.000000
41
0.000000
0
VERTEX
8
4210943
10
0.280000
20
-0.629000
0
VERTEX
8
4210943
10
0.320000
20
-0.629000
0
SEQEND
8
4210943
0
POLYLINE
8
4210943
66
1
40
0.000000
41
0.000000
0
VERTEX
8
4210943
10
0.280000
20
-0.628000
0
VERTEX
8
4210943
10
0.320000
20
-0.628000
0
SEQEND
8
4210943
0
POLYLINE
8
4210943
66
1
40
0.000000
41
0.000000
0
VERTEX
8
4210943
10
0.280000
20
-0.627000
0
VERTEX
8
4210943
10
0.320000
20
-0.627000
0
SEQEND
8
4210943
0
POLYLINE
8
4210943
66
1
40
0.000000
41
0.000000
0
VERTEX
8
4210943
10
0.280000
20
-0.626000
0
VERTEX
8
4210943
10
0.320000
20
-0.626000
0
SEQEND
8
4210943
0
POLYLINE
8
4210943
66
1
40
0.000000
41
0.000000
0
VERTEX
8
4210943
10
0.280000
20
-0.625000
0
VERTEX
8
4210943
10
0.320000
20
-0.625000
0
SEQEND
8
4210943
0
POLYLINE
8
4210943
66
1
40
0.000000
41
0.000000
0
VERTEX
8
4210943
10
0.280000
20
-0.624000
0
VERTEX
8
4210943
10
0.320000
20
-0.624000
0
SEQEND
8
4210943
0
POLYLINE
8
4210943
66
1
40
0.000000
41
0.000000
0
VERTEX
8
4210943
10
0.280000
20
-0.623000
0
VERTEX
8
4210943
10
0.320000
20
-0.623000
0
SEQEND
8
4210943
0
POLYLINE
8
4210943
66
1
40
0.000000
41
0.000000
0
VERTEX
8
4210943
10
0.280000
20
-0.622000
0
VERTEX
8
4210943
10
0.320000
20
-0.622000
0
SEQEND
8
4210943
0
POLYLINE
8
4210943
66
1
40
0.000000
41
0.000000
0
VERTEX
8
4210943
10
0.280000
20
-0.621000
0
VERTEX
8
4210943
10
0.320000
20
-0.621000
0
SEQEND
8
4210943
0
POLYLINE
8
4210943
66
1
40
0.000000
41
0.000000
0
VERTEX
8
4210943
10
0.280000
20
-0.620000
0
VERTEX
8
4210943
10
0.320000
20
-0.620000
0
SEQEND
8
4210943
0
POLYLINE
8
4210943
66
1
40
0.000000
41
0.000000
0
VERTEX
8
4210943
10
0.280000
20
-0.619000
0
VERTEX
8
4210943
10
0.320000
20
-0.619000
0
SEQEND
8
4210943
0
POLYLINE
8
4210943
66
1
40
0.000000
41
0.000000
0
VERTEX
8
4210943
10
0.280000
20
-0.618000
0
VERTEX
8
4210943
10
0.320000
20
-0.618000
0
SEQEND
8
4210943
0
POLYLINE
8
4210943
66
1
40
0.000000
41
0.000000
0
VERTEX
8
4210943
10
0.280000
20
-0.617000
0
VERTEX
8
4210943
10
0.320000
20
-0.617000
0
SEQEND
8
4210943
0
POLYLINE
8
4210943
66
1
40
0.000000
41
0.000000
0
VERTEX
8
4210943
10
0.280000
20
-0.616000
0
VERTEX
8
4210943
10
0.320000
20
-0.616000
0
SEQEND
8
4210943
0
POLYLINE
8
4210943
66
1
40
0.000000
41
0.000000
0
VERTEX
8
4210943
10
0.280000
20
-0.615000
0
VERTEX
8
4210943
10
0.320000
20
-0.615000
0
SEQEND
8
4210943
0
POLYLINE
8
4210943
66
1
40
0.000000
41
0.000000
0
VERTEX
8
4210943
10
0.280000
20
-0.614000
0
VERTEX
8
4210943
10
0.320000
20
-0.614000
0
SEQEND
8
4210943
0
POLYLINE
8
4210943
66
1
40
0.000000
41
0.000000
0
VERTEX
8
4210943
10
0.280000
20
-0.613000
0
VERTEX
8
4210943
10
0.320000
20
-0.613000
0
SEQEND
8
4210943
0
POLYLINE
8
4210943
66
1
40
0.000000
41
0.000000
0
VERTEX
8
4210943
10
0.280000
20
-0.612000
0
VERTEX
8
4210943
10
0.320000
20
-0.612000
0
SEQEND
8
4210943
0
POLYLINE
8
4210943
66
1
40
0.000000
41
0.000000
0
VERTEX
8
4210943
10
0.280000
20
-0.611000
0
VERTEX
8
4210943
10
0.320000
20
-0.611000
0
SEQEND
8
4210943
0
POLYLINE
8
4210943
66
1
40
0.000000
41
0.000000
0
VERTEX
8
4210943
10
0.280000
20
-0.610000
0
VERTEX
8
4210943
10
0.320000
20
-0.610000
0
SEQEND
8
4210943
0
POLYLINE
8
4210943
66
1
40
0.000000
41
0.000000
0
VERTEX
8
4210943
10
0.280000
20
-0.609000
0
VERTEX
8
4210943
10
0.320000
20
-0.609000
0
SEQEND
8
4210943
0
POLYLINE
8
4210943
66
1
40
0.000000
41
0.000000
0
VERTEX
8
4210943
10
0.280000
20
-0.608000
0
VERTEX
8
4210943
10
0.320000
20
-0.608000
0
SEQEND
8
4210943
0
POLYLINE
8
4210943
66
1
40
0.000000
41
0.000000
0
VERTEX
8
4210943
10
0.280000
20
-0.607000
0
VERTEX
8
4210943
10
0.320000
20
-0.607000
0
SEQEND
8
4210943
0
POLYLINE
8
4210943
66
1
40
0.000000
41
0.000000
0
VERTEX
8
4210943
10
0.280000
20
-0.606000
0
VERTEX
8
4210943
10
0.320000
20
-0.606000
0
SEQEND
8
4210943
0
POLYLINE
8
4210943
66
1
40
0.000000
41
0.000000
0
VERTEX
8
4210943
10
0.280000
20
-0.605000
0
VERTEX
8
4210943
10
0.320000
20
-0.605000
0
SEQEND
8
4210943
0
POLYLINE
8
4210943
66
1
40
0.000000
41
0.000000
0
VERTEX
8
4210943
10
0.280000
20
-0.604000
0
VERTEX
8
4210943
10
0.320000
20
-0.604000
0
SEQEND
8
4210943
0
POLYLINE
8
4210943
66
1
40
0.000000
41
0.000000
0
VERTEX
8
4210943
10
0.280000
20
-0.603000
0
VERTEX
8
4210943
10
0.320000
20
-0.603000
0
SEQEND
8
4210943
0
POLYLINE
8
4210943
66
1
40
0.000000
41
0.000000
0
VERTEX
8
4210943
10
0.280000
20
-0.602000
0
VERTEX
8
4210943
10
0.320000
20
-0.602000
0
SEQEND
8
4210943
0
POLYLINE
8
4210943
66
1
40
0.000000
41
0.000000
0
VERTEX
8
4210943
10
0.280000
20
-0.601000
0
VERTEX
8
4210943
10
0.320000
20
-0.601000
0
SEQEND
8
4210943
0
POLYLINE
8
4210943
66
1
40
0.000000
41
0.000000
0
VERTEX
8
4210943
10
0.280000
20
-0.600000
0
VERTEX
8
4210943
10
0.320000
20
-0.600000
0
SEQEND
8
4210943
0
POLYLINE
8
4210943
66
1
40
0.000000
41
0.000000
0
VERTEX
8
4210943
10
0.280000
20
-0.599000
0
VERTEX
8
4210943
10
0.320000
20
-0.599000
0
SEQEND
8
4210943
0
POLYLINE
8
4210943
66
1
40
0.000000
41
0.000000
0
VERTEX
8
4210943
10
0.280000
20
-0.598000
0
VERTEX
8
4210943
10
0.320000
20
-0.598000
0
SEQEND
8
4210943
0
POLYLINE
8
4210943
66
1
40
0.000000
41
0.000000
0
VERTEX
8
4210943
10
0.280000
20
-0.597000
0
VERTEX
8
4210943
10
0.320000
20
-0.597000
0
SEQEND
8
4210943
0
POLYLINE
8
4210943
66
1
40
0.000000
41
0.000000
0
VERTEX
8
4210943
10
0.280000
20
-0.596000
0
VERTEX
8
4210943
10
0.320000
20
-0.596000
0
SEQEND
8
4210943
0
POLYLINE
8
4210943
66
1
40
0.000000
41
0.000000
0
VERTEX
8
4210943
10
0.280000
20
-0.595000
0
VERTEX
8
4210943
10
0.320000
20
-0.595000
0
SEQEND
8
4210943
0
POLYLINE
8
4210943
66
1
40
0.000000
41
0.000000
0
VERTEX
8
4210943
10
0.180000
20
-0.635000
0
VERTEX
8
4210943
10
0.220000
20
-0.635000
0
SEQEND
8
4210943
0
POLYLINE
8
4210943
66
1
40
0.000000
41
0.000000
0
VERTEX
8
4210943
10
0.180000
20
-0.634000
0
VERTEX
8
4210943
10
0.220000
20
-0.634000
0
SEQEND
8
4210943
0
POLYLINE
8
4210943
66
1
40
0.000000
41
0.000000
0
VERTEX
8
4210943
10
0.180000
20
-0.633000
0
VERTEX
8
4210943
10
0.220000
20
-0.633000
0
SEQEND
8
4210943
0
POLYLINE
8
4210943
66
1
40
0.000000
41
0.000000
0
VERTEX
8
4210943
10
0.180000
20
-0.632000
0
VERTEX
8
4210943
10
0.220000
20
-0.632000
0
SEQEND
8
4210943
0
POLYLINE
8
4210943
66
1
40
0.000000
41
0.000000
0
VERTEX
8
4210943
10
0.180000
20
-0.631000
0
VERTEX
8
4210943
10
0.220000
20
-0.631000
0
SEQEND
8
4210943
0
POLYLINE
8
4210943
66
1
40
0.000000
41
0.000000
0
VERTEX
8
4210943
10
0.180000
20
-0.630000
0
VERTEX
8
4210943
10
0.220000
20
-0.630000
0
SEQEND
8
4210943
0
POLYLINE
8
4210943
66
1
40
0.000000
41
0.000000
0
VERTEX
8
4210943
10
0.180000
20
-0.629000
0
VERTEX
8
4210943
10
0.220000
20
-0.629000
0
SEQEND
8
4210943
0
POLYLINE
8
4210943
66
1
40
0.000000
41
0.000000
0
VERTEX
8
4210943
10
0.180000
20
-0.628000
0
VERTEX
8
4210943
10
0.220000
20
-0.628000
0
SEQEND
8
4210943
0
POLYLINE
8
4210943
66
1
40
0.000000
41
0.000000
0
VERTEX
8
4210943
10
0.180000
20
-0.627000
0
VERTEX
8
4210943
10
0.220000
20
-0.627000
0
SEQEND
8
4210943
0
POLYLINE
8
4210943
66
1
40
0.000000
41
0.000000
0
VERTEX
8
4210943
10
0.180000
20
-0.626000
0
VERTEX
8
4210943
10
0.220000
20
-0.626000
0
SEQEND
8
4210943
0
POLYLINE
8
4210943
66
1
40
0.000000
41
0.000000
0
VERTEX
8
4210943
10
0.180000
20
-0.625000
0
VERTEX
8
4210943
10
0.220000
20
-0.625000
0
SEQEND
8
4210943
0
POLYLINE
8
4210943
66
1
40
0.000000
41
0.000000
0
VERTEX
8
4210943
10
0.180000
20
-0.624000
0
VERTEX
8
4210943
10
0.220000
20
-0.624000
0
SEQEND
8
4210943
0
POLYLINE
8
4210943
66
1
40
0.000000
41
0.000000
0
VERTEX
8
4210943
10
0.180000
20
-0.623000
0
VERTEX
8
4210943
10
0.220000
20
-0.623000
0
SEQEND
8
4210943
0
POLYLINE
8
4210943
66
1
40
0.000000
41
0.000000
0
VERTEX
8
4210943
10
0.180000
20
-0.622000
0
VERTEX
8
4210943
10
0.220000
20
-0.622000
0
SEQEND
8
4210943
0
POLYLINE
8
4210943
66
1
40
0.000000
41
0.000000
0
VERTEX
8
4210943
10
0.180000
20
-0.621000
0
VERTEX
8
4210943
10
0.220000
20
-0.621000
0
SEQEND
8
4210943
0
POLYLINE
8
4210943
66
1
40
0.000000
41
0.000000
0
VERTEX
8
4210943
10
0.180000
20
-0.620000
0
VERTEX
8
4210943
10
0.220000
20
-0.620000
0
SEQEND
8
4210943
0
POLYLINE
8
4210943
66
1
40
0.000000
41
0.000000
0
VERTEX
8
4210943
10
0.180000
20
-0.619000
0
VERTEX
8
4210943
10
0.220000
20
-0.619000
0
SEQEND
8
4210943
0
POLYLINE
8
4210943
66
1
40
0.000000
41
0.000000
0
VERTEX
8
4210943
10
0.180000
20
-0.618000
0
VERTEX
8
4210943
10
0.220000
20
-0.618000
0
SEQEND
8
4210943
0
POLYLINE
8
4210943
66
1
40
0.000000
41
0.000000
0
VERTEX
8
4210943
10
0.180000
20
-0.617000
0
VERTEX
8
4210943
10
0.220000
20
-0.617000
0
SEQEND
8
4210943
0
POLYLINE
8
4210943
66
1
40
0.000000
41
0.000000
0
VERTEX
8
4210943
10
0.180000
20
-0.616000
0
VERTEX
8
4210943
10
0.220000
20
-0.616000
0
SEQEND
8
4210943
0
POLYLINE
8
4210943
66
1
40
0.000000
41
0.000000
0
VERTEX
8
4210943
10
0.180000
20
-0.615000
0
VERTEX
8
4210943
10
0.220000
20
-0.615000
0
SEQEND
8
4210943
0
POLYLINE
8
4210943
66
1
40
0.000000
41
0.000000
0
VERTEX
8
4210943
10
0.180000
20
-0.614000
0
VERTEX
8
4210943
10
0.220000
20
-0.614000
0
SEQEND
8
4210943
0
POLYLINE
8
4210943
66
1
40
0.000000
41
0.000000
0
VERTEX
8
4210943
10
0.180000
20
-0.613000
0
VERTEX
8
4210943
10
0.220000
20
-0.613000
0
SEQEND
8
4210943
0
POLYLINE
8
4210943
66
1
40
0.000000
41
0.000000
0
VERTEX
8
4210943
10
0.180000
20
-0.612000
0
VERTEX
8
4210943
10
0.220000
20
-0.612000
0
SEQEND
8
4210943
0
POLYLINE
8
4210943
66
1
40
0.000000
41
0.000000
0
VERTEX
8
4210943
10
0.180000
20
-0.611000
0
VERTEX
8
4210943
10
0.220000
20
-0.611000
0
SEQEND
8
4210943
0
POLYLINE
8
4210943
66
1
40
0.000000
41
0.000000
0
VERTEX
8
4210943
10
0.180000
20
-0.610000
0
VERTEX
8
4210943
10
0.220000
20
-0.610000
0
SEQEND
8
4210943
0
POLYLINE
8
4210943
66
1
40
0.000000
41
0.000000
0
VERTEX
8
4210943
10
0.180000
20
-0.609000
0
VERTEX
8
4210943
10
0.220000
20
-0.609000
0
SEQEND
8
4210943
0
POLYLINE
8
4210943
66
1
40
0.000000
41
0.000000
0
VERTEX
8
4210943
10
0.180000
20
-0.608000
0
VERTEX
8
4210943
10
0.220000
20
-0.608000
0
SEQEND
8
4210943
0
POLYLINE
8
4210943
66
1
40
0.000000
41
0.000000
0
VERTEX
8
4210943
10
0.180000
20
-0.607000
0
VERTEX
8
4210943
10
0.220000
20
-0.607000
0
SEQEND
8
4210943
0
POLYLINE
8
4210943
66
1
40
0.000000
41
0.000000
0
VERTEX
8
4210943
10
0.180000
20
-0.606000
0
VERTEX
8
4210943
10
0.220000
20
-0.606000
0
SEQEND
8
4210943
0
POLYLINE
8
4210943
66
1
40
0.000000
41
0.000000
0
VERTEX
8
4210943
10
0.180000
20
-0.605000
0
VERTEX
8
4210943
10
0.220000
20
-0.605000
0
SEQEND
8
4210943
0
POLYLINE
8
4210943
66
1
40
0.000000
41
0.000000
0
VERTEX
8
4210943
10
0.180000
20
-0.604000
0
VERTEX
8
4210943
10
0.220000
20
-0.604000
0
SEQEND
8
4210943
0
POLYLINE
8
4210943
66
1
40
0.000000
41
0.000000
0
VERTEX
8
4210943
10
0.180000
20
-0.603000
0
VERTEX
8
4210943
10
0.220000
20
-0.603000
0
SEQEND
8
4210943
0
POLYLINE
8
4210943
66
1
40
0.000000
41
0.000000
0
VERTEX
8
4210943
10
0.180000
20
-0.602000
0
VERTEX
8
4210943
10
0.220000
20
-0.602000
0
SEQEND
8
4210943
0
POLYLINE
8
4210943
66
1
40
0.000000
41
0.000000
0
VERTEX
8
4210943
10
0.180000
20
-0.601000
0
VERTEX
8
4210943
10
0.220000
20
-0.601000
0
SEQEND
8
4210943
0
POLYLINE
8
4210943
66
1
40
0.000000
41
0.000000
0
VERTEX
8
4210943
10
0.180000
20
-0.600000
0
VERTEX
8
4210943
10
0.220000
20
-0.600000
0
SEQEND
8
4210943
0
POLYLINE
8
4210943
66
1
40
0.000000
41
0.000000
0
VERTEX
8
4210943
10
0.180000
20
-0.599000
0
VERTEX
8
4210943
10
0.220000
20
-0.599000
0
SEQEND
8
4210943
0
POLYLINE
8
4210943
66
1
40
0.000000
41
0.000000
0
VERTEX
8
4210943
10
0.180000
20
-0.598000
0
VERTEX
8
4210943
10
0.220000
20
-0.598000
0
SEQEND
8
4210943
0
POLYLINE
8
4210943
66
1
40
0.000000
41
0.000000
0
VERTEX
8
4210943
10
0.180000
20
-0.597000
0
VERTEX
8
4210943
10
0.220000
20
-0.597000
0
SEQEND
8
4210943
0
POLYLINE
8
4210943
66
1
40
0.000000
41
0.000000
0
VERTEX
8
4210943
10
0.180000
20
-0.596000
0
VERTEX
8
4210943
10
0.220000
20
-0.596000
0
SEQEND
8
4210943
0
POLYLINE
8
4210943
66
1
40
0.000000
41
0.000000
0
VERTEX
8
4210943
10
0.180000
20
-0.595000
0
VERTEX
8
4210943
10
0.220000
20
-0.595000
0
SEQEND
8
4210943
0
POLYLINE
8
4210943
66
1
40
0.000000
41
0.000000
0
VERTEX
8
4210943
10
0.080000
20
-0.635000
0
VERTEX
8
4210943
10
0.120000
20
-0.635000
0
SEQEND
8
4210943
0
POLYLINE
8
4210943
66
1
40
0.000000
41
0.000000
0
VERTEX
8
4210943
10
0.080000
20
-0.634000
0
VERTEX
8
4210943
10
0.120000
20
-0.634000
0
SEQEND
8
4210943
0
POLYLINE
8
4210943
66
1
40
0.000000
41
0.000000
0
VERTEX
8
4210943
10
0.080000
20
-0.633000
0
VERTEX
8
4210943
10
0.120000
20
-0.633000
0
SEQEND
8
4210943
0
POLYLINE
8
4210943
66
1
40
0.000000
41
0.000000
0
VERTEX
8
4210943
10
0.080000
20
-0.632000
0
VERTEX
8
4210943
10
0.120000
20
-0.632000
0
SEQEND
8
4210943
0
POLYLINE
8
4210943
66
1
40
0.000000
41
0.000000
0
VERTEX
8
4210943
10
0.080000
20
-0.631000
0
VERTEX
8
4210943
10
0.120000
20
-0.631000
0
SEQEND
8
4210943
0
POLYLINE
8
4210943
66
1
40
0.000000
41
0.000000
0
VERTEX
8
4210943
10
0.080000
20
-0.630000
0
VERTEX
8
4210943
10
0.120000
20
-0.630000
0
SEQEND
8
4210943
0
POLYLINE
8
4210943
66
1
40
0.000000
41
0.000000
0
VERTEX
8
4210943
10
0.080000
20
-0.629000
0
VERTEX
8
4210943
10
0.120000
20
-0.629000
0
SEQEND
8
4210943
0
POLYLINE
8
4210943
66
1
40
0.000000
41
0.000000
0
VERTEX
8
4210943
10
0.080000
20
-0.628000
0
VERTEX
8
4210943
10
0.120000
20
-0.628000
0
SEQEND
8
4210943
0
POLYLINE
8
4210943
66
1
40
0.000000
41
0.000000
0
VERTEX
8
4210943
10
0.080000
20
-0.627000
0
VERTEX
8
4210943
10
0.120000
20
-0.627000
0
SEQEND
8
4210943
0
POLYLINE
8
4210943
66
1
40
0.000000
41
0.000000
0
VERTEX
8
4210943
10
0.080000
20
-0.626000
0
VERTEX
8
4210943
10
0.120000
20
-0.626000
0
SEQEND
8
4210943
0
POLYLINE
8
4210943
66
1
40
0.000000
41
0.000000
0
VERTEX
8
4210943
10
0.080000
20
-0.625000
0
VERTEX
8
4210943
10
0.120000
20
-0.625000
0
SEQEND
8
4210943
0
POLYLINE
8
4210943
66
1
40
0.000000
41
0.000000
0
VERTEX
8
4210943
10
0.080000
20
-0.624000
0
VERTEX
8
4210943
10
0.120000
20
-0.624000
0
SEQEND
8
4210943
0
POLYLINE
8
4210943
66
1
40
0.000000
41
0.000000
0
VERTEX
8
4210943
10
0.080000
20
-0.623000
0
VERTEX
8
4210943
10
0.120000
20
-0.623000
0
SEQEND
8
4210943
0
POLYLINE
8
4210943
66
1
40
0.000000
41
0.000000
0
VERTEX
8
4210943
10
0.080000
20
-0.622000
0
VERTEX
8
4210943
10
0.120000
20
-0.622000
0
SEQEND
8
4210943
0
POLYLINE
8
4210943
66
1
40
0.000000
41
0.000000
0
VERTEX
8
4210943
10
0.080000
20
-0.621000
0
VERTEX
8
4210943
10
0.120000
20
-0.621000
0
SEQEND
8
4210943
0
POLYLINE
8
4210943
66
1
40
0.000000
41
0.000000
0
VERTEX
8
4210943
10
0.080000
20
-0.620000
0
VERTEX
8
4210943
10
0.120000
20
-0.620000
0
SEQEND
8
4210943
0
POLYLINE
8
4210943
66
1
40
0.000000
41
0.000000
0
VERTEX
8
4210943
10
0.080000
20
-0.619000
0
VERTEX
8
4210943
10
0.120000
20
-0.619000
0
SEQEND
8
4210943
0
POLYLINE
8
4210943
66
1
40
0.000000
41
0.000000
0
VERTEX
8
4210943
10
0.080000
20
-0.618000
0
VERTEX
8
4210943
10
0.120000
20
-0.618000
0
SEQEND
8
4210943
0
POLYLINE
8
4210943
66
1
40
0.000000
41
0.000000
0
VERTEX
8
4210943
10
0.080000
20
-0.617000
0
VERTEX
8
4210943
10
0.120000
20
-0.617000
0
SEQEND
8
4210943
0
POLYLINE
8
4210943
66
1
40
0.000000
41
0.000000
0
VERTEX
8
4210943
10
0.080000
20
-0.616000
0
VERTEX
8
4210943
10
0.120000
20
-0.616000
0
SEQEND
8
4210943
0
POLYLINE
8
4210943
66
1
40
0.000000
41
0.000000
0
VERTEX
8
4210943
10
0.080000
20
-0.615000
0
VERTEX
8
4210943
10
0.120000
20
-0.615000
0
SEQEND
8
4210943
0
POLYLINE
8
4210943
66
1
40
0.000000
41
0.000000
0
VERTEX
8
4210943
10
0.080000
20
-0.614000
0
VERTEX
8
4210943
10
0.120000
20
-0.614000
0
SEQEND
8
4210943
0
POLYLINE
8
4210943
66
1
40
0.000000
41
0.000000
0
VERTEX
8
4210943
10
0.080000
20
-0.613000
0
VERTEX
8
4210943
10
0.120000
20
-0.613000
0
SEQEND
8
4210943
0
POLYLINE
8
4210943
66
1
40
0.000000
41
0.000000
0
VERTEX
8
4210943
10
0.080000
20
-0.612000
0
VERTEX
8
4210943
10
0.120000
20
-0.612000
0
SEQEND
8
4210943
0
POLYLINE
8
4210943
66
1
40
0.000000
41
0.000000
0
VERTEX
8
4210943
10
0.080000
20
-0.611000
0
VERTEX
8
4210943
10
0.120000
20
-0.611000
0
SEQEND
8
4210943
0
POLYLINE
8
4210943
66
1
40
0.000000
41
0.000000
0
VERTEX
8
4210943
10
0.080000
20
-0.610000
0
VERTEX
8
4210943
10
0.120000
20
-0.610000
0
SEQEND
8
4210943
0
POLYLINE
8
4210943
66
1
40
0.000000
41
0.000000
0
VERTEX
8
4210943
10
0.080000
20
-0.609000
0
VERTEX
8
4210943
10
0.120000
20
-0.609000
0
SEQEND
8
4210943
0
POLYLINE
8
4210943
66
1
40
0.000000
41
0.000000
0
VERTEX
8
4210943
10
0.080000
20
-0.608000
0
VERTEX
8
4210943
10
0.120000
20
-0.608000
0
SEQEND
8
4210943
0
POLYLINE
8
4210943
66
1
40
0.000000
41
0.000000
0
VERTEX
8
4210943
10
0.080000
20
-0.607000
0
VERTEX
8
4210943
10
0.120000
20
-0.607000
0
SEQEND
8
4210943
0
POLYLINE
8
4210943
66
1
40
0.000000
41
0.000000
0
VERTEX
8
4210943
10
0.080000
20
-0.606000
0
VERTEX
8
4210943
10
0.120000
20
-0.606000
0
SEQEND
8
4210943
0
POLYLINE
8
4210943
66
1
40
0.000000
41
0.000000
0
VERTEX
8
4210943
10
0.080000
20
-0.605000
0
VERTEX
8
4210943
10
0.120000
20
-0.605000
0
SEQEND
8
4210943
0
POLYLINE
8
4210943
66
1
40
0.000000
41
0.000000
0
VERTEX
8
4210943
10
0.080000
20
-0.604000
0
VERTEX
8
4210943
10
0.120000
20
-0.604000
0
SEQEND
8
4210943
0
POLYLINE
8
4210943
66
1
40
0.000000
41
0.000000
0
VERTEX
8
4210943
10
0.080000
20
-0.603000
0
VERTEX
8
4210943
10
0.120000
20
-0.603000
0
SEQEND
8
4210943
0
POLYLINE
8
4210943
66
1
40
0.000000
41
0.000000
0
VERTEX
8
4210943
10
0.080000
20
-0.602000
0
VERTEX
8
4210943
10
0.120000
20
-0.602000
0
SEQEND
8
4210943
0
POLYLINE
8
4210943
66
1
40
0.000000
41
0.000000
0
VERTEX
8
4210943
10
0.080000
20
-0.601000
0
VERTEX
8
4210943
10
0.120000
20
-0.601000
0
SEQEND
8
4210943
0
POLYLINE
8
4210943
66
1
40
0.000000
41
0.000000
0
VERTEX
8
4210943
10
0.080000
20
-0.600000
0
VERTEX
8
4210943
10
0.120000
20
-0.600000
0
SEQEND
8
4210943
0
POLYLINE
8
4210943
66
1
40
0.000000
41
0.000000
0
VERTEX
8
4210943
10
0.080000
20
-0.599000
0
VERTEX
8
4210943
10
0.120000
20
-0.599000
0
SEQEND
8
4210943
0
POLYLINE
8
4210943
66
1
40
0.000000
41
0.000000
0
VERTEX
8
4210943
10
0.080000
20
-0.598000
0
VERTEX
8
4210943
10
0.120000
20
-0.598000
0
SEQEND
8
4210943
0
POLYLINE
8
4210943
66
1
40
0.000000
41
0.000000
0
VERTEX
8
4210943
10
0.080000
20
-0.597000
0
VERTEX
8
4210943
10
0.120000
20
-0.597000
0
SEQEND
8
4210943
0
POLYLINE
8
4210943
66
1
40
0.000000
41
0.000000
0
VERTEX
8
4210943
10
0.080000
20
-0.596000
0
VERTEX
8
4210943
10
0.120000
20
-0.596000
0
SEQEND
8
4210943
0
POLYLINE
8
4210943
66
1
40
0.000000
41
0.000000
0
VERTEX
8
4210943
10
0.080000
20
-0.595000
0
VERTEX
8
4210943
10
0.120000
20
-0.595000
0
SEQEND
8
4210943
0
POLYLINE
8
16728128
66
1
40
0.000000
41
0.000000
0
VERTEX
8
16728128
10
-0.020000
20
-0.635000
0
VERTEX
8
16728128
10
0.020000
20
-0.635000
0
SEQEND
8
16728128
0
POLYLINE
8
16728128
66
1
40
0.000000
41
0.000000
0
VERTEX
8
16728128
10
-0.020000
20
-0.634000
0
VERTEX
8
16728128
10
0.020000
20
-0.634000
0
SEQEND
8
16728128
0
POLYLINE
8
16728128
66
1
40
0.000000
41
0.000000
0
VERTEX
8
16728128
10
-0.020000
20
-0.633000
0
VERTEX
8
16728128
10
0.020000
20
-0.633000
0
SEQEND
8
16728128
0
POLYLINE
8
16728128
66
1
40
0.000000
41
0.000000
0
VERTEX
8
16728128
10
-0.020000
20
-0.632000
0
VERTEX
8
16728128
10
0.020000
20
-0.632000
0
SEQEND
8
16728128
0
POLYLINE
8
16728128
66
1
40
0.000000
41
0.000000
0
VERTEX
8
16728128
10
-0.020000
20
-0.631000
0
VERTEX
8
16728128
10
0.020000
20
-0.631000
0
SEQEND
8
16728128
0
POLYLINE
8
16728128
66
1
40
0.000000
41
0.000000
0
VERTEX
8
16728128
10
-0.020000
20
-0.630000
0
VERTEX
8
16728128
10
0.020000
20
-0.630000
0
SEQEND
8
16728128
0
POLYLINE
8
16728128
66
1
40
0.000000
41
0.000000
0
VERTEX
8
16728128
10
-0.020000
20
-0.629000
0
VERTEX
8
16728128
10
0.020000
20
-0.629000
0
SEQEND
8
16728128
0
POLYLINE
8
16728128
66
1
40
0.000000
41
0.000000
0
VERTEX
8
16728128
10
-0.020000
20
-0.628000
0
VERTEX
8
16728128
10
0.020000
20
-0.628000
0
SEQEND
8
16728128
0
POLYLINE
8
16728128
66
1
40
0.000000
41
0.000000
0
VERTEX
8
16728128
10
-0.020000
20
-0.627000
0
VERTEX
8
16728128
10
0.020000
20
-0.627000
0
SEQEND
8
16728128
0
POLYLINE
8
16728128
66
1
40
0.000000
41
0.000000
0
VERTEX
8
16728128
10
-0.020000
20
-0.626000
0
VERTEX
8
16728128
10
0.020000
20
-0.626000
0
SEQEND
8
16728128
0
POLYLINE
8
16728128
66
1
40
0.000000
41
0.000000
0
VERTEX
8
16728128
10
-0.020000
20
-0.625000
0
VERTEX
8
16728128
10
0.020000
20
-0.625000
0
SEQEND
8
16728128
0
POLYLINE
8
16728128
66
1
40
0.000000
41
0.000000
0
VERTEX
8
16728128
10
-0.020000
20
-0.624000
0
VERTEX
8
16728128
10
0.020000
20
-0.624000
0
SEQEND
8
16728128
0
POLYLINE
8
16728128
66
1
40
0.000000
41
0.000000
0
VERTEX
8
16728128
10
-0.020000
20
-0.623000
0
VERTEX
8
16728128
10
0.020000
20
-0.623000
0
SEQEND
8
16728128
0
POLYLINE
8
16728128
66
1
40
0.000000
41
0.000000
0
VERTEX
8
16728128
10
-0.020000
20
-0.622000
0
VERTEX
8
16728128
10
0.020000
20
-0.622000
0
SEQEND
8
16728128
0
POLYLINE
8
16728128
66
1
40
0.000000
41
0.000000
0
VERTEX
8
16728128
10
-0.020000
20
-0.621000
0
VERTEX
8
16728128
10
0.020000
20
-0.621000
0
SEQEND
8
16728128
0
POLYLINE
8
16728128
66
1
40
0.000000
41
0.000000
0
VERTEX
8
16728128
10
-0.020000
20
-0.620000
0
VERTEX
8
16728128
10
0.020000
20
-0.620000
0
SEQEND
8
16728128
0
POLYLINE
8
16728128
66
1
40
0.000000
41
0.000000
0
VERTEX
8
16728128
10
-0.020000
20
-0.619000
0
VERTEX
8
16728128
10
0.020000
20
-0.619000
0
SEQEND
8
16728128
0
POLYLINE
8
16728128
66
1
40
0.000000
41
0.000000
0
VERTEX
8
16728128
10
-0.020000
20
-0.618000
0
VERTEX
8
16728128
10
0.020000
20
-0.618000
0
SEQEND
8
16728128
0
POLYLINE
8
16728128
66
1
40
0.000000
41
0.000000
0
VERTEX
8
16728128
10
-0.020000
20
-0.617000
0
VERTEX
8
16728128
10
0.020000
20
-0.617000
0
SEQEND
8
16728128
0
POLYLINE
8
16728128
66
1
40
0.000000
41
0.000000
0
VERTEX
8
16728128
10
-0.020000
20
-0.616000
0
VERTEX
8
16728128
10
0.020000
20
-0.616000
0
SEQEND
8
16728128
0
POLYLINE
8
16728128
66
1
40
0.000000
41
0.000000
0
VERTEX
8
16728128
10
-0.020000
20
-0.615000
0
VERTEX
8
16728128
10
0.020000
20
-0.615000
0
SEQEND
8
16728128
0
POLYLINE
8
16728128
66
1
40
0.000000
41
0.000000
0
VERTEX
8
16728128
10
-0.020000
20
-0.614000
0
VERTEX
8
16728128
10
0.020000
20
-0.614000
0
SEQEND
8
16728128
0
POLYLINE
8
16728128
66
1
40
0.000000
41
0.000000
0
VERTEX
8
16728128
10
-0.020000
20
-0.613000
0
VERTEX
8
16728128
10
0.020000
20
-0.613000
0
SEQEND
8
16728128
0
POLYLINE
8
16728128
66
1
40
0.000000
41
0.000000
0
VERTEX
8
16728128
10
-0.020000
20
-0.612000
0
VERTEX
8
16728128
10
0.020000
20
-0.612000
0
SEQEND
8
16728128
0
POLYLINE
8
16728128
66
1
40
0.000000
41
0.000000
0
VERTEX
8
16728128
10
-0.020000
20
-0.611000
0
VERTEX
8
16728128
10
0.020000
20
-0.611000
0
SEQEND
8
16728128
0
POLYLINE
8
16728128
66
1
40
0.000000
41
0.000000
0
VERTEX
8
16728128
10
-0.020000
20
-0.610000
0
VERTEX
8
16728128
10
0.020000
20
-0.610000
0
SEQEND
8
16728128
0
POLYLINE
8
16728128
66
1
40
0.000000
41
0.000000
0
VERTEX
8
16728128
10
-0.020000
20
-0.609000
0
VERTEX
8
16728128
10
0.020000
20
-0.609000
0
SEQEND
8
16728128
0
POLYLINE
8
16728128
66
1
40
0.000000
41
0.000000
0
VERTEX
8
16728128
10
-0.020000
20
-0.608000
0
VERTEX
8
16728128
10
0.020000
20
-0.608000
0
SEQEND
8
16728128
0
POLYLINE
8
16728128
66
1
40
0.000000
41
0.000000
0
VERTEX
8
16728128
10
-0.020000
20
-0.607000
0
VERTEX
8
16728128
10
0.020000
20
-0.607000
0
SEQEND
8
16728128
0
POLYLINE
8
16728128
66
1
40
0.000000
41
0.000000
0
VERTEX
8
16728128
10
-0.020000
20
-0.606000
0
VERTEX
8
16728128
10
0.020000
20
-0.606000
0
SEQEND
8
16728128
0
POLYLINE
8
16728128
66
1
40
0.000000
41
0.000000
0
VERTEX
8
16728128
10
-0.020000
20
-0.605000
0
VERTEX
8
16728128
10
0.020000
20
-0.605000
0
SEQEND
8
16728128
0
POLYLINE
8
16728128
66
1
40
0.000000
41
0.000000
0
VERTEX
8
16728128
10
-0.020000
20
-0.604000
0
VERTEX
8
16728128
10
0.020000
20
-0.604000
0
SEQEND
8
16728128
0
POLYLINE
8
16728128
66
1
40
0.000000
41
0.000000
0
VERTEX
8
16728128
10
-0.020000
20
-0.603000
0
VERTEX
8
16728128
10
0.020000
20
-0.603000
0
SEQEND
8
16728128
0
POLYLINE
8
16728128
66
1
40
0.000000
41
0.000000
0
VERTEX
8
16728128
10
-0.020000
20
-0.602000
0
VERTEX
8
16728128
10
0.020000
20
-0.602000
0
SEQEND
8
16728128
0
POLYLINE
8
16728128
66
1
40
0.000000
41
0.000000
0
VERTEX
8
16728128
10
-0.020000
20
-0.601000
0
VERTEX
8
16728128
10
0.020000
20
-0.601000
0
SEQEND
8
16728128
0
POLYLINE
8
16728128
66
1
40
0.000000
41
0.000000
0
VERTEX
8
16728128
10
-0.020000
20
-0.600000
0
VERTEX
8
16728128
10
0.020000
20
-0.600000
0
SEQEND
8
16728128
0
POLYLINE
8
16728128
66
1
40
0.000000
41
0.000000
0
VERTEX
8
16728128
10
-0.020000
20
-0.599000
0
VERTEX
8
16728128
10
0.020000
20
-0.599000
0
SEQEND
8
16728128
0
POLYLINE
8
16728128
66
1
40
0.000000
41
0.000000
0
VERTEX
8
16728128
10
-0.020000
20
-0.598000
0
VERTEX
8
16728128
10
0.020000
20
-0.598000
0
SEQEND
8
16728128
0
POLYLINE
8
16728128
66
1
40
0.000000
41
0.000000
0
VERTEX
8
16728128
10
-0.020000
20
-0.597000
0
VERTEX
8
16728128
10
0.020000
20
-0.597000
0
SEQEND
8
16728128
0
POLYLINE
8
16728128
66
1
40
0.000000
41
0.000000
0
VERTEX
8
16728128
10
-0.020000
20
-0.596000
0
VERTEX
8
16728128
10
0.020000
20
-0.596000
0
SEQEND
8
16728128
0
POLYLINE
8
16728128
66
1
40
0.000000
41
0.000000
0
VERTEX
8
16728128
10
-0.020000
20
-0.595000
0
VERTEX
8
16728128
10
0.020000
20
-0.595000
0
SEQEND
8
16728128
0
POLYLINE
8
16728128
66
1
40
0.000000
41
0.000000
0
VERTEX
8
16728128
10
-0.120000
20
-0.635000
0
VERTEX
8
16728128
10
-0.080000
20
-0.635000
0
SEQEND
8
16728128
0
POLYLINE
8
16728128
66
1
40
0.000000
41
0.000000
0
VERTEX
8
16728128
10
-0.120000
20
-0.634000
0
VERTEX
8
16728128
10
-0.080000
20
-0.634000
0
SEQEND
8
16728128
0
POLYLINE
8
16728128
66
1
40
0.000000
41
0.000000
0
VERTEX
8
16728128
10
-0.120000
20
-0.633000
0
VERTEX
8
16728128
10
-0.080000
20
-0.633000
0
SEQEND
8
16728128
0
POLYLINE
8
16728128
66
1
40
0.000000
41
0.000000
0
VERTEX
8
16728128
10
-0.120000
20
-0.632000
0
VERTEX
8
16728128
10
-0.080000
20
-0.632000
0
SEQEND
8
16728128
0
POLYLINE
8
16728128
66
1
40
0.000000
41
0.000000
0
VERTEX
8
16728128
10
-0.120000
20
-0.631000
0
VERTEX
8
16728128
10
-0.080000
20
-0.631000
0
SEQEND
8
16728128
0
POLYLINE
8
16728128
66
1
40
0.000000
41
0.000000
0
VERTEX
8
16728128
10
-0.120000
20
-0.630000
0
VERTEX
8
16728128
10
-0.080000
20
-0.630000
0
SEQEND
8
16728128
0
POLYLINE
8
16728128
66
1
40
0.000000
41
0.000000
0
VERTEX
8
16728128
10
-0.120000
20
-0.629000
0
VERTEX
8
16728128
10
-0.080000
20
-0.629000
0
SEQEND
8
16728128
0
POLYLINE
8
16728128
66
1
40
0.000000
41
0.000000
0
VERTEX
8
16728128
10
-0.120000
20
-0.628000
0
VERTEX
8
16728128
10
-0.080000
20
-0.628000
0
SEQEND
8
16728128
0
POLYLINE
8
16728128
66
1
40
0.000000
41
0.000000
0
VERTEX
8
16728128
10
-0.120000
20
-0.627000
0
VERTEX
8
16728128
10
-0.080000
20
-0.627000
0
SEQEND
8
16728128
0
POLYLINE
8
16728128
66
1
40
0.000000
41
0.000000
0
VERTEX
8
16728128
10
-0.120000
20
-0.626000
0
VERTEX
8
16728128
10
-0.080000
20
-0.626000
0
SEQEND
8
16728128
0
POLYLINE
8
16728128
66
1
40
0.000000
41
0.000000
0
VERTEX
8
16728128
10
-0.120000
20
-0.625000
0
VERTEX
8
16728128
10
-0.080000
20
-0.625000
0
SEQEND
8
16728128
0
POLYLINE
8
16728128
66
1
40
0.000000
41
0.000000
0
VERTEX
8
16728128
10
-0.120000
20
-0.624000
0
VERTEX
8
16728128
10
-0.080000
20
-0.624000
0
SEQEND
8
16728128
0
POLYLINE
8
16728128
66
1
40
0.000000
41
0.000000
0
VERTEX
8
16728128
10
-0.120000
20
-0.623000
0
VERTEX
8
16728128
10
-0.080000
20
-0.623000
0
SEQEND
8
16728128
0
POLYLINE
8
16728128
66
1
40
0.000000
41
0.000000
0
VERTEX
8
16728128
10
-0.120000
20
-0.622000
0
VERTEX
8
16728128
10
-0.080000
20
-0.622000
0
SEQEND
8
16728128
0
POLYLINE
8
16728128
66
1
40
0.000000
41
0.000000
0
VERTEX
8
16728128
10
-0.120000
20
-0.621000
0
VERTEX
8
16728128
10
-0.080000
20
-0.621000
0
SEQEND
8
16728128
0
POLYLINE
8
16728128
66
1
40
0.000000
41
0.000000
0
VERTEX
8
16728128
10
-0.120000
20
-0.620000
0
VERTEX
8
16728128
10
-0.080000
20
-0.620000
0
SEQEND
8
16728128
0
POLYLINE
8
16728128
66
1
40
0.000000
41
0.000000
0
VERTEX
8
16728128
10
-0.120000
20
-0.619000
0
VERTEX
8
16728128
10
-0.080000
20
-0.619000
0
SEQEND
8
16728128
0
POLYLINE
8
16728128
66
1
40
0.000000
41
0.000000
0
VERTEX
8
16728128
10
-0.120000
20
-0.618000
0
VERTEX
8
16728128
10
-0.080000
20
-0.618000
0
SEQEND
8
16728128
0
POLYLINE
8
16728128
66
1
40
0.000000
41
0.000000
0
VERTEX
8
16728128
10
-0.120000
20
-0.617000
0
VERTEX
8
16728128
10
-0.080000
20
-0.617000
0
SEQEND
8
16728128
0
POLYLINE
8
16728128
66
1
40
0.000000
41
0.000000
0
VERTEX
8
16728128
10
-0.120000
20
-0.616000
0
VERTEX
8
16728128
10
-0.080000
20
-0.616000
0
SEQEND
8
16728128
0
POLYLINE
8
16728128
66
1
40
0.000000
41
0.000000
0
VERTEX
8
16728128
10
-0.120000
20
-0.615000
0
VERTEX
8
16728128
10
-0.080000
20
-0.615000
0
SEQEND
8
16728128
0
POLYLINE
8
16728128
66
1
40
0.000000
41
0.000000
0
VERTEX
8
16728128
10
-0.120000
20
-0.614000
0
VERTEX
8
16728128
10
-0.080000
20
-0.614000
0
SEQEND
8
16728128
0
POLYLINE
8
16728128
66
1
40
0.000000
41
0.000000
0
VERTEX
8
16728128
10
-0.120000
20
-0.613000
0
VERTEX
8
16728128
10
-0.080000
20
-0.613000
0
SEQEND
8
16728128
0
POLYLINE
8
16728128
66
1
40
0.000000
41
0.000000
0
VERTEX
8
16728128
10
-0.120000
20
-0.612000
0
VERTEX
8
16728128
10
-0.080000
20
-0.612000
0
SEQEND
8
16728128
0
POLYLINE
8
16728128
66
1
40
0.000000
41
0.000000
0
VERTEX
8
16728128
10
-0.120000
20
-0.611000
0
VERTEX
8
16728128
10
-0.080000
20
-0.611000
0
SEQEND
8
16728128
0
POLYLINE
8
16728128
66
1
40
0.000000
41
0.000000
0
VERTEX
8
16728128
10
-0.120000
20
-0.610000
0
VERTEX
8
16728128
10
-0.080000
20
-0.610000
0
SEQEND
8
16728128
0
POLYLINE
8
16728128
66
1
40
0.000000
41
0.000000
0
VERTEX
8
16728128
10
-0.120000
20
-0.609000
0
VERTEX
8
16728128
10
-0.080000
20
-0.609000
0
SEQEND
8
16728128
0
POLYLINE
8
16728128
66
1
40
0.000000
41
0.000000
0
VERTEX
8
16728128
10
-0.120000
20
-0.608000
0
VERTEX
8
16728128
10
-0.080000
20
-0.608000
0
SEQEND
8
16728128
0
POLYLINE
8
16728128
66
1
40
0.000000
41
0.000000
0
VERTEX
8
16728128
10
-0.120000
20
-0.607000
0
VERTEX
8
16728128
10
-0.080000
20
-0.607000
0
SEQEND
8
16728128
0
POLYLINE
8
16728128
66
1
40
0.000000
41
0.000000
0
VERTEX
8
16728128
10
-0.120000
20
-0.606000
0
VERTEX
8
16728128
10
-0.080000
20
-0.606000
0
SEQEND
8
16728128
0
POLYLINE
8
16728128
66
1
40
0.000000
41
0.000000
0
VERTEX
8
16728128
10
-0.120000
20
-0.605000
0
VERTEX
8
16728128
10
-0.080000
20
-0.605000
0
SEQEND
8
16728128
0
POLYLINE
8
16728128
66
1
40
0.000000
41
0.000000
0
VERTEX
8
16728128
10
-0.120000
20
-0.604000
0
VERTEX
8
16728128
10
-0.080000
20
-0.604000
0
SEQEND
8
16728128
0
POLYLINE
8
16728128
66
1
40
0.000000
41
0.000000
0
VERTEX
8
16728128
10
-0.120000
20
-0.603000
0
VERTEX
8
16728128
10
-0.080000
20
-0.603000
0
SEQEND
8
16728128
0
POLYLINE
8
16728128
66
1
40
0.000000
41
0.000000
0
VERTEX
8
16728128
10
-0.120000
20
-0.602000
0
VERTEX
8
16728128
10
-0.080000
20
-0.602000
0
SEQEND
8
16728128
0
POLYLINE
8
16728128
66
1
40
0.000000
41
0.000000
0
VERTEX
8
16728128
10
-0.120000
20
-0.601000
0
VERTEX
8
16728128
10
-0.080000
20
-0.601000
0
SEQEND
8
16728128
0
POLYLINE
8
16728128
66
1
40
0.000000
41
0.000000
0
VERTEX
8
16728128
10
-0.120000
20
-0.600000
0
VERTEX
8
16728128
10
-0.080000
20
-0.600000
0
SEQEND
8
16728128
0
POLYLINE
8
16728128
66
1
40
0.000000
41
0.000000
0
VERTEX
8
16728128
10
-0.120000
20
-0.599000
0
VERTEX
8
16728128
10
-0.080000
20
-0.599000
0
SEQEND
8
16728128
0
POLYLINE
8
16728128
66
1
40
0.000000
41
0.000000
0
VERTEX
8
16728128
10
-0.120000
20
-0.598000
0
VERTEX
8
16728128
10
-0.080000
20
-0.598000
0
SEQEND
8
16728128
0
POLYLINE
8
16728128
66
1
40
0.000000
41
0.000000
0
VERTEX
8
16728128
10
-0.120000
20
-0.597000
0
VERTEX
8
16728128
10
-0.080000
20
-0.597000
0
SEQEND
8
16728128
0
POLYLINE
8
16728128
66
1
40
0.000000
41
0.000000
0
VERTEX
8
16728128
10
-0.120000
20
-0.596000
0
VERTEX
8
16728128
10
-0.080000
20
-0.596000
0
SEQEND
8
16728128
0
POLYLINE
8
16728128
66
1
40
0.000000
41
0.000000
0
VERTEX
8
16728128
10
-0.120000
20
-0.595000
0
VERTEX
8
16728128
10
-0.080000
20
-0.595000
0
SEQEND
8
16728128
0
POLYLINE
8
16728128
66
1
40
0.000000
41
0.000000
0
VERTEX
8
16728128
10
-0.220000
20
-0.635000
0
VERTEX
8
16728128
10
-0.180000
20
-0.635000
0
SEQEND
8
16728128
0
POLYLINE
8
16728128
66
1
40
0.000000
41
0.000000
0
VERTEX
8
16728128
10
-0.220000
20
-0.634000
0
VERTEX
8
16728128
10
-0.180000
20
-0.634000
0
SEQEND
8
16728128
0
POLYLINE
8
16728128
66
1
40
0.000000
41
0.000000
0
VERTEX
8
16728128
10
-0.220000
20
-0.633000
0
VERTEX
8
16728128
10
-0.180000
20
-0.633000
0
SEQEND
8
16728128
0
POLYLINE
8
16728128
66
1
40
0.000000
41
0.000000
0
VERTEX
8
16728128
10
-0.220000
20
-0.632000
0
VERTEX
8
16728128
10
-0.180000
20
-0.632000
0
SEQEND
8
16728128
0
POLYLINE
8
16728128
66
1
40
0.000000
41
0.000000
0
VERTEX
8
16728128
10
-0.220000
20
-0.631000
0
VERTEX
8
16728128
10
-0.180000
20
-0.631000
0
SEQEND
8
16728128
0
POLYLINE
8
16728128
66
1
40
0.000000
41
0.000000
0
VERTEX
8
16728128
10
-0.220000
20
-0.630000
0
VERTEX
8
16728128
10
-0.180000
20
-0.630000
0
SEQEND
8
16728128
0
POLYLINE
8
16728128
66
1
40
0.000000
41
0.000000
0
VERTEX
8
16728128
10
-0.220000
20
-0.629000
0
VERTEX
8
16728128
10
-0.180000
20
-0.629000
0
SEQEND
8
16728128
0
POLYLINE
8
16728128
66
1
40
0.000000
41
0.000000
0
VERTEX
8
16728128
10
-0.220000
20
-0.628000
0
VERTEX
8
16728128
10
-0.180000
20
-0.628000
0
SEQEND
8
16728128
0
POLYLINE
8
16728128
66
1
40
0.000000
41
0.000000
0
VERTEX
8
16728128
10
-0.220000
20
-0.627000
0
VERTEX
8
16728128
10
-0.180000
20
-0.627000
0
SEQEND
8
16728128
0
POLYLINE
8
16728128
66
1
40
0.000000
41
0.000000
0
VERTEX
8
16728128
10
-0.220000
20
-0.626000
0
VERTEX
8
16728128
10
-0.180000
20
-0.626000
0
SEQEND
8
16728128
0
POLYLINE
8
16728128
66
1
40
0.000000
41
0.000000
0
VERTEX
8
16728128
10
-0.220000
20
-0.625000
0
VERTEX
8
16728128
10
-0.180000
20
-0.625000
0
SEQEND
8
16728128
0
POLYLINE
8
16728128
66
1
40
0.000000
41
0.000000
0
VERTEX
8
16728128
10
-0.220000
20
-0.624000
0
VERTEX
8
16728128
10
-0.180000
20
-0.624000
0
SEQEND
8
16728128
0
POLYLINE
8
16728128
66
1
40
0.000000
41
0.000000
0
VERTEX
8
16728128
10
-0.220000
20
-0.623000
0
VERTEX
8
16728128
10
-0.180000
20
-0.623000
0
SEQEND
8
16728128
0
POLYLINE
8
16728128
66
1
40
0.000000
41
0.000000
0
VERTEX
8
16728128
10
-0.220000
20
-0.622000
0
VERTEX
8
16728128
10
-0.180000
20
-0.622000
0
SEQEND
8
16728128
0
POLYLINE
8
16728128
66
1
40
0.000000
41
0.000000
0
VERTEX
8
16728128
10
-0.220000
20
-0.621000
0
VERTEX
8
16728128
10
-0.180000
20
-0.621000
0
SEQEND
8
16728128
0
POLYLINE
8
16728128
66
1
40
0.000000
41
0.000000
0
VERTEX
8
16728128
10
-0.220000
20
-0.620000
0
VERTEX
8
16728128
10
-0.180000
20
-0.620000
0
SEQEND
8
16728128
0
POLYLINE
8
16728128
66
1
40
0.000000
41
0.000000
0
VERTEX
8
16728128
10
-0.220000
20
-0.619000
0
VERTEX
8
16728128
10
-0.180000
20
-0.619000
0
SEQEND
8
16728128
0
POLYLINE
8
16728128
66
1
40
0.000000
41
0.000000
0
VERTEX
8
16728128
10
-0.220000
20
-0.618000
0
VERTEX
8
16728128
10
-0.180000
20
-0.618000
0
SEQEND
8
16728128
0
POLYLINE
8
16728128
66
1
40
0.000000
41
0.000000
0
VERTEX
8
16728128
10
-0.220000
20
-0.617000
0
VERTEX
8
16728128
10
-0.180000
20
-0.617000
0
SEQEND
8
16728128
0
POLYLINE
8
16728128
66
1
40
0.000000
41
0.000000
0
VERTEX
8
16728128
10
-0.220000
20
-0.616000
0
VERTEX
8
16728128
10
-0.180000
20
-0.616000
0
SEQEND
8
16728128
0
POLYLINE
8
16728128
66
1
40
0.000000
41
0.000000
0
VERTEX
8
16728128
10
-0.220000
20
-0.615000
0
VERTEX
8
16728128
10
-0.180000
20
-0.615000
0
SEQEND
8
16728128
0
POLYLINE
8
16728128
66
1
40
0.000000
41
0.000000
0
VERTEX
8
16728128
10
-0.220000
20
-0.614000
0
VERTEX
8
16728128
10
-0.180000
20
-0.614000
0
SEQEND
8
16728128
0
POLYLINE
8
16728128
66
1
40
0.000000
41
0.000000
0
VERTEX
8
16728128
10
-0.220000
20
-0.613000
0
VERTEX
8
16728128
10
-0.180000
20
-0.613000
0
SEQEND
8
16728128
0
POLYLINE
8
16728128
66
1
40
0.000000
41
0.000000
0
VERTEX
8
16728128
10
-0.220000
20
-0.612000
0
VERTEX
8
16728128
10
-0.180000
20
-0.612000
0
SEQEND
8
16728128
0
POLYLINE
8
16728128
66
1
40
0.000000
41
0.000000
0
VERTEX
8
16728128
10
-0.220000
20
-0.611000
0
VERTEX
8
16728128
10
-0.180000
20
-0.611000
0
SEQEND
8
16728128
0
POLYLINE
8
16728128
66
1
40
0.000000
41
0.000000
0
VERTEX
8
16728128
10
-0.220000
20
-0.610000
0
VERTEX
8
16728128
10
-0.180000
20
-0.610000
0
SEQEND
8
16728128
0
POLYLINE
8
16728128
66
1
40
0.000000
41
0.000000
0
VERTEX
8
16728128
10
-0.220000
20
-0.609000
0
VERTEX
8
16728128
10
-0.180000
20
-0.609000
0
SEQEND
8
16728128
0
POLYLINE
8
16728128
66
1
40
0.000000
41
0.000000
0
VERTEX
8
16728128
10
-0.220000
20
-0.608000
0
VERTEX
8
16728128
10
-0.180000
20
-0.608000
0
SEQEND
8
16728128
0
POLYLINE
8
16728128
66
1
40
0.000000
41
0.000000
0
VERTEX
8
16728128
10
-0.220000
20
-0.607000
0
VERTEX
8
16728128
10
-0.180000
20
-0.607000
0
SEQEND
8
16728128
0
POLYLINE
8
16728128
66
1
40
0.000000
41
0.000000
0
VERTEX
8
16728128
10
-0.220000
20
-0.606000
0
VERTEX
8
16728128
10
-0.180000
20
-0.606000
0
SEQEND
8
16728128
0
POLYLINE
8
16728128
66
1
40
0.000000
41
0.000000
0
VERTEX
8
16728128
10
-0.220000
20
-0.605000
0
VERTEX
8
16728128
10
-0.180000
20
-0.605000
0
SEQEND
8
16728128
0
POLYLINE
8
16728128
66
1
40
0.000000
41
0.000000
0
VERTEX
8
16728128
10
-0.220000
20
-0.604000
0
VERTEX
8
16728128
10
-0.180000
20
-0.604000
0
SEQEND
8
16728128
0
POLYLINE
8
16728128
66
1
40
0.000000
41
0.000000
0
VERTEX
8
16728128
10
-0.220000
20
-0.603000
0
VERTEX
8
16728128
10
-0.180000
20
-0.603000
0
SEQEND
8
16728128
0
POLYLINE
8
16728128
66
1
40
0.000000
41
0.000000
0
VERTEX
8
16728128
10
-0.220000
20
-0.602000
0
VERTEX
8
16728128
10
-0.180000
20
-0.602000
0
SEQEND
8
16728128
0
POLYLINE
8
16728128
66
1
40
0.000000
41
0.000000
0
VERTEX
8
16728128
10
-0.220000
20
-0.601000
0
VERTEX
8
16728128
10
-0.180000
20
-0.601000
0
SEQEND
8
16728128
0
POLYLINE
8
16728128
66
1
40
0.000000
41
0.000000
0
VERTEX
8
16728128
10
-0.220000
20
-0.600000
0
VERTEX
8
16728128
10
-0.180000
20
-0.600000
0
SEQEND
8
16728128
0
POLYLINE
8
16728128
66
1
40
0.000000
41
0.000000
0
VERTEX
8
16728128
10
-0.220000
20
-0.599000
0
VERTEX
8
16728128
10
-0.180000
20
-0.599000
0
SEQEND
8
16728128
0
POLYLINE
8
16728128
66
1
40
0.000000
41
0.000000
0
VERTEX
8
16728128
10
-0.220000
20
-0.598000
0
VERTEX
8
16728128
10
-0.180000
20
-0.598000
0
SEQEND
8
16728128
0
POLYLINE
8
16728128
66
1
40
0.000000
41
0.000000
0
VERTEX
8
16728128
10
-0.220000
20
-0.597000
0
VERTEX
8
16728128
10
-0.180000
20
-0.597000
0
SEQEND
8
16728128
0
POLYLINE
8
16728128
66
1
40
0.000000
41
0.000000
0
VERTEX
8
16728128
10
-0.220000
20
-0.596000
0
VERTEX
8
16728128
10
-0.180000
20
-0.596000
0
SEQEND
8
16728128
0
POLYLINE
8
16728128
66
1
40
0.000000
41
0.000000
0
VERTEX
8
16728128
10
-0.220000
20
-0.595000
0
VERTEX
8
16728128
10
-0.180000
20
-0.595000
0
SEQEND
8
16728128
0
POLYLINE
8
16728128
66
1
40
0.000000
41
0.000000
0
VERTEX
8
16728128
10
-0.320000
20
-0.635000
0
VERTEX
8
16728128
10
-0.280000
20
-0.635000
0
SEQEND
8
16728128
0
POLYLINE
8
16728128
66
1
40
0.000000
41
0.000000
0
VERTEX
8
16728128
10
-0.320000
20
-0.634000
0
VERTEX
8
16728128
10
-0.280000
20
-0.634000
0
SEQEND
8
16728128
0
POLYLINE
8
16728128
66
1
40
0.000000
41
0.000000
0
VERTEX
8
16728128
10
-0.320000
20
-0.633000
0
VERTEX
8
16728128
10
-0.280000
20
-0.633000
0
SEQEND
8
16728128
0
POLYLINE
8
16728128
66
1
40
0.000000
41
0.000000
0
VERTEX
8
16728128
10
-0.320000
20
-0.632000
0
VERTEX
8
16728128
10
-0.280000
20
-0.632000
0
SEQEND
8
16728128
0
POLYLINE
8
16728128
66
1
40
0.000000
41
0.000000
0
VERTEX
8
16728128
10
-0.320000
20
-0.631000
0
VERTEX
8
16728128
10
-0.280000
20
-0.631000
0
SEQEND
8
16728128
0
POLYLINE
8
16728128
66
1
40
0.000000
41
0.000000
0
VERTEX
8
16728128
10
-0.320000
20
-0.630000
0
VERTEX
8
16728128
10
-0.280000
20
-0.630000
0
SEQEND
8
16728128
0
POLYLINE
8
16728128
66
1
40
0.000000
41
0.000000
0
VERTEX
8
16728128
10
-0.320000
20
-0.629000
0
VERTEX
8
16728128
10
-0.280000
20
-0.629000
0
SEQEND
8
16728128
0
POLYLINE
8
16728128
66
1
40
0.000000
41
0.000000
0
VERTEX
8
16728128
10
-0.320000
20
-0.628000
0
VERTEX
8
16728128
10
-0.280000
20
-0.628000
0
SEQEND
8
16728128
0
POLYLINE
8
16728128
66
1
40
0.000000
41
0.000000
0
VERTEX
8
16728128
10
-0.320000
20
-0.627000
0
VERTEX
8
16728128
10
-0.280000
20
-0.627000
0
SEQEND
8
16728128
0
POLYLINE
8
16728128
66
1
40
0.000000
41
0.000000
0
VERTEX
8
16728128
10
-0.320000
20
-0.626000
0
VERTEX
8
16728128
10
-0.280000
20
-0.626000
0
SEQEND
8
16728128
0
POLYLINE
8
16728128
66
1
40
0.000000
41
0.000000
0
VERTEX
8
16728128
10
-0.320000
20
-0.625000
0
VERTEX
8
16728128
10
-0.280000
20
-0.625000
0
SEQEND
8
16728128
0
POLYLINE
8
16728128
66
1
40
0.000000
41
0.000000
0
VERTEX
8
16728128
10
-0.320000
20
-0.624000
0
VERTEX
8
16728128
10
-0.280000
20
-0.624000
0
SEQEND
8
16728128
0
POLYLINE
8
16728128
66
1
40
0.000000
41
0.000000
0
VERTEX
8
16728128
10
-0.320000
20
-0.623000
0
VERTEX
8
16728128
10
-0.280000
20
-0.623000
0
SEQEND
8
16728128
0
POLYLINE
8
16728128
66
1
40
0.000000
41
0.000000
0
VERTEX
8
16728128
10
-0.320000
20
-0.622000
0
VERTEX
8
16728128
10
-0.280000
20
-0.622000
0
SEQEND
8
16728128
0
POLYLINE
8
16728128
66
1
40
0.000000
41
0.000000
0
VERTEX
8
16728128
10
-0.320000
20
-0.621000
0
VERTEX
8
16728128
10
-0.280000
20
-0.621000
0
SEQEND
8
16728128
0
POLYLINE
8
16728128
66
1
40
0.000000
41
0.000000
0
VERTEX
8
16728128
10
-0.320000
20
-0.620000
0
VERTEX
8
16728128
10
-0.280000
20
-0.620000
0
SEQEND
8
16728128
0
POLYLINE
8
16728128
66
1
40
0.000000
41
0.000000
0
VERTEX
8
16728128
10
-0.320000
20
-0.619000
0
VERTEX
8
16728128
10
-0.280000
20
-0.619000
0
SEQEND
8
16728128
0
POLYLINE
8
16728128
66
1
40
0.000000
41
0.000000
0
VERTEX
8
16728128
10
-0.320000
20
-0.618000
0
VERTEX
8
16728128
10
-0.280000
20
-0.618000
0
SEQEND
8
16728128
0
POLYLINE
8
16728128
66
1
40
0.000000
41
0.000000
0
VERTEX
8
16728128
10
-0.320000
20
-0.617000
0
VERTEX
8
16728128
10
-0.280000
20
-0.617000
0
SEQEND
8
16728128
0
POLYLINE
8
16728128
66
1
40
0.000000
41
0.000000
0
VERTEX
8
16728128
10
-0.320000
20
-0.616000
0
VERTEX
8
16728128
10
-0.280000
20
-0.616000
0
SEQEND
8
16728128
0
POLYLINE
8
16728128
66
1
40
0.000000
41
0.000000
0
VERTEX
8
16728128
10
-0.320000
20
-0.615000
0
VERTEX
8
16728128
10
-0.280000
20
-0.615000
0
SEQEND
8
16728128
0
POLYLINE
8
16728128
66
1
40
0.000000
41
0.000000
0
VERTEX
8
16728128
10
-0.320000
20
-0.614000
0
VERTEX
8
16728128
10
-0.280000
20
-0.614000
0
SEQEND
8
16728128
0
POLYLINE
8
16728128
66
1
40
0.000000
41
0.000000
0
VERTEX
8
16728128
10
-0.320000
20
-0.613000
0
VERTEX
8
16728128
10
-0.280000
20
-0.613000
0
SEQEND
8
16728128
0
POLYLINE
8
16728128
66
1
40
0.000000
41
0.000000
0
VERTEX
8
16728128
10
-0.320000
20
-0.612000
0
VERTEX
8
16728128
10
-0.280000
20
-0.612000
0
SEQEND
8
16728128
0
POLYLINE
8
16728128
66
1
40
0.000000
41
0.000000
0
VERTEX
8
16728128
10
-0.320000
20
-0.611000
0
VERTEX
8
16728128
10
-0.280000
20
-0.611000
0
SEQEND
8
16728128
0
POLYLINE
8
16728128
66
1
40
0.000000
41
0.000000
0
VERTEX
8
16728128
10
-0.320000
20
-0.610000
0
VERTEX
8
16728128
10
-0.280000
20
-0.610000
0
SEQEND
8
16728128
0
POLYLINE
8
16728128
66
1
40
0.000000
41
0.000000
0
VERTEX
8
16728128
10
-0.320000
20
-0.609000
0
VERTEX
8
16728128
10
-0.280000
20
-0.609000
0
SEQEND
8
16728128
0
POLYLINE
8
16728128
66
1
40
0.000000
41
0.000000
0
VERTEX
8
16728128
10
-0.320000
20
-0.608000
0
VERTEX
8
16728128
10
-0.280000
20
-0.608000
0
SEQEND
8
16728128
0
POLYLINE
8
16728128
66
1
40
0.000000
41
0.000000
0
VERTEX
8
16728128
10
-0.320000
20
-0.607000
0
VERTEX
8
16728128
10
-0.280000
20
-0.607000
0
SEQEND
8
16728128
0
POLYLINE
8
16728128
66
1
40
0.000000
41
0.000000
0
VERTEX
8
16728128
10
-0.320000
20
-0.606000
0
VERTEX
8
16728128
10
-0.280000
20
-0.606000
0
SEQEND
8
16728128
0
POLYLINE
8
16728128
66
1
40
0.000000
41
0.000000
0
VERTEX
8
16728128
10
-0.320000
20
-0.605000
0
VERTEX
8
16728128
10
-0.280000
20
-0.605000
0
SEQEND
8
16728128
0
POLYLINE
8
16728128
66
1
40
0.000000
41
0.000000
0
VERTEX
8
16728128
10
-0.320000
20
-0.604000
0
VERTEX
8
16728128
10
-0.280000
20
-0.604000
0
SEQEND
8
16728128
0
POLYLINE
8
16728128
66
1
40
0.000000
41
0.000000
0
VERTEX
8
16728128
10
-0.320000
20
-0.603000
0
VERTEX
8
16728128
10
-0.280000
20
-0.603000
0
SEQEND
8
16728128
0
POLYLINE
8
16728128
66
1
40
0.000000
41
0.000000
0
VERTEX
8
16728128
10
-0.320000
20
-0.602000
0
VERTEX
8
16728128
10
-0.280000
20
-0.602000
0
SEQEND
8
16728128
0
POLYLINE
8
16728128
66
1
40
0.000000
41
0.000000
0
VERTEX
8
16728128
10
-0.320000
20
-0.601000
0
VERTEX
8
16728128
10
-0.280000
20
-0.601000
0
SEQEND
8
16728128
0
POLYLINE
8
16728128
66
1
40
0.000000
41
0.000000
0
VERTEX
8
16728128
10
-0.320000
20
-0.600000
0
VERTEX
8
16728128
10
-0.280000
20
-0.600000
0
SEQEND
8
16728128
0
POLYLINE
8
16728128
66
1
40
0.000000
41
0.000000
0
VERTEX
8
16728128
10
-0.320000
20
-0.599000
0
VERTEX
8
16728128
10
-0.280000
20
-0.599000
0
SEQEND
8
16728128
0
POLYLINE
8
16728128
66
1
40
0.000000
41
0.000000
0
VERTEX
8
16728128
10
-0.320000
20
-0.598000
0
VERTEX
8
16728128
10
-0.280000
20
-0.598000
0
SEQEND
8
16728128
0
POLYLINE
8
16728128
66
1
40
0.000000
41
0.000000
0
VERTEX
8
16728128
10
-0.320000
20
-0.597000
0
VERTEX
8
16728128
10
-0.280000
20
-0.597000
0
SEQEND
8
16728128
0
POLYLINE
8
16728128
66
1
40
0.000000
41
0.000000
0
VERTEX
8
16728128
10
-0.320000
20
-0.596000
0
VERTEX
8
16728128
10
-0.280000
20
-0.596000
0
SEQEND
8
16728128
0
POLYLINE
8
16728128
66
1
40
0.000000
41
0.000000
0
VERTEX
8
16728128
10
-0.320000
20
-0.595000
0
VERTEX
8
16728128
10
-0.280000
20
-0.595000
0
SEQEND
8
16728128
0
POLYLINE
8
16728128
66
1
40
0.000000
41
0.000000
0
VERTEX
8
16728128
10
-0.420000
20
-0.635000
0
VERTEX
8
16728128
10
-0.380000
20
-0.635000
0
SEQEND
8
16728128
0
POLYLINE
8
16728128
66
1
40
0.000000
41
0.000000
0
VERTEX
8
16728128
10
-0.420000
20
-0.634000
0
VERTEX
8
16728128
10
-0.380000
20
-0.634000
0
SEQEND
8
16728128
0
POLYLINE
8
16728128
66
1
40
0.000000
41
0.000000
0
VERTEX
8
16728128
10
-0.420000
20
-0.633000
0
VERTEX
8
16728128
10
-0.380000
20
-0.633000
0
SEQEND
8
16728128
0
POLYLINE
8
16728128
66
1
40
0.000000
41
0.000000
0
VERTEX
8
16728128
10
-0.420000
20
-0.632000
0
VERTEX
8
16728128
10
-0.380000
20
-0.632000
0
SEQEND
8
16728128
0
POLYLINE
8
16728128
66
1
40
0.000000
41
0.000000
0
VERTEX
8
16728128
10
-0.420000
20
-0.631000
0
VERTEX
8
16728128
10
-0.380000
20
-0.631000
0
SEQEND
8
16728128
0
POLYLINE
8
16728128
66
1
40
0.000000
41
0.000000
0
VERTEX
8
16728128
10
-0.420000
20
-0.630000
0
VERTEX
8
16728128
10
-0.380000
20
-0.630000
0
SEQEND
8
16728128
0
POLYLINE
8
16728128
66
1
40
0.000000
41
0.000000
0
VERTEX
8
16728128
10
-0.420000
20
-0.629000
0
VERTEX
8
16728128
10
-0.380000
20
-0.629000
0
SEQEND
8
16728128
0
POLYLINE
8
16728128
66
1
40
0.000000
41
0.000000
0
VERTEX
8
16728128
10
-0.420000
20
-0.628000
0
VERTEX
8
16728128
10
-0.380000
20
-0.628000
0
SEQEND
8
16728128
0
POLYLINE
8
16728128
66
1
40
0.000000
41
0.000000
0
VERTEX
8
16728128
10
-0.420000
20
-0.627000
0
VERTEX
8
16728128
10
-0.380000
20
-0.627000
0
SEQEND
8
16728128
0
POLYLINE
8
16728128
66
1
40
0.000000
41
0.000000
0
VERTEX
8
16728128
10
-0.420000
20
-0.626000
0
VERTEX
8
16728128
10
-0.380000
20
-0.626000
0
SEQEND
8
16728128
0
POLYLINE
8
16728128
66
1
40
0.000000
41
0.000000
0
VERTEX
8
16728128
10
-0.420000
20
-0.625000
0
VERTEX
8
16728128
10
-0.380000
20
-0.625000
0
SEQEND
8
16728128
0
POLYLINE
8
16728128
66
1
40
0.000000
41
0.000000
0
VERTEX
8
16728128
10
-0.420000
20
-0.624000
0
VERTEX
8
16728128
10
-0.380000
20
-0.624000
0
SEQEND
8
16728128
0
POLYLINE
8
16728128
66
1
40
0.000000
41
0.000000
0
VERTEX
8
16728128
10
-0.420000
20
-0.623000
0
VERTEX
8
16728128
10
-0.380000
20
-0.623000
0
SEQEND
8
16728128
0
POLYLINE
8
16728128
66
1
40
0.000000
41
0.000000
0
VERTEX
8
16728128
10
-0.420000
20
-0.622000
0
VERTEX
8
16728128
10
-0.380000
20
-0.622000
0
SEQEND
8
16728128
0
POLYLINE
8
16728128
66
1
40
0.000000
41
0.000000
0
VERTEX
8
16728128
10
-0.420000
20
-0.621000
0
VERTEX
8
16728128
10
-0.380000
20
-0.621000
0
SEQEND
8
16728128
0
POLYLINE
8
16728128
66
1
40
0.000000
41
0.000000
0
VERTEX
8
16728128
10
-0.420000
20
-0.620000
0
VERTEX
8
16728128
10
-0.380000
20
-0.620000
0
SEQEND
8
16728128
0
POLYLINE
8
16728128
66
1
40
0.000000
41
0.000000
0
VERTEX
8
16728128
10
-0.420000
20
-0.619000
0
VERTEX
8
16728128
10
-0.380000
20
-0.619000
0
SEQEND
8
16728128
0
POLYLINE
8
16728128
66
1
40
0.000000
41
0.000000
0
VERTEX
8
16728128
10
-0.420000
20
-0.618000
0
VERTEX
8
16728128
10
-0.380000
20
-0.618000
0
SEQEND
8
16728128
0
POLYLINE
8
16728128
66
1
40
0.000000
41
0.000000
0
VERTEX
8
16728128
10
-0.420000
20
-0.617000
0
VERTEX
8
16728128
10
-0.380000
20
-0.617000
0
SEQEND
8
16728128
0
POLYLINE
8
16728128
66
1
40
0.000000
41
0.000000
0
VERTEX
8
16728128
10
-0.420000
20
-0.616000
0
VERTEX
8
16728128
10
-0.380000
20
-0.616000
0
SEQEND
8
16728128
0
POLYLINE
8
16728128
66
1
40
0.000000
41
0.000000
0
VERTEX
8
16728128
10
-0.420000
20
-0.615000
0
VERTEX
8
16728128
10
-0.380000
20
-0.615000
0
SEQEND
8
16728128
0
POLYLINE
8
16728128
66
1
40
0.000000
41
0.000000
0
VERTEX
8
16728128
10
-0.420000
20
-0.614000
0
VERTEX
8
16728128
10
-0.380000
20
-0.614000
0
SEQEND
8
16728128
0
POLYLINE
8
16728128
66
1
40
0.000000
41
0.000000
0
VERTEX
8
16728128
10
-0.420000
20
-0.613000
0
VERTEX
8
16728128
10
-0.380000
20
-0.613000
0
SEQEND
8
16728128
0
POLYLINE
8
16728128
66
1
40
0.000000
41
0.000000
0
VERTEX
8
16728128
10
-0.420000
20
-0.612000
0
VERTEX
8
16728128
10
-0.380000
20
-0.612000
0
SEQEND
8
16728128
0
POLYLINE
8
16728128
66
1
40
0.000000
41
0.000000
0
VERTEX
8
16728128
10
-0.420000
20
-0.611000
0
VERTEX
8
16728128
10
-0.380000
20
-0.611000
0
SEQEND
8
16728128
0
POLYLINE
8
16728128
66
1
40
0.000000
41
0.000000
0
VERTEX
8
16728128
10
-0.420000
20
-0.610000
0
VERTEX
8
16728128
10
-0.380000
20
-0.610000
0
SEQEND
8
16728128
0
POLYLINE
8
16728128
66
1
40
0.000000
41
0.000000
0
VERTEX
8
16728128
10
-0.420000
20
-0.609000
0
VERTEX
8
16728128
10
-0.380000
20
-0.609000
0
SEQEND
8
16728128
0
POLYLINE
8
16728128
66
1
40
0.000000
41
0.000000
0
VERTEX
8
16728128
10
-0.420000
20
-0.608000
0
VERTEX
8
16728128
10
-0.380000
20
-0.608000
0
SEQEND
8
16728128
0
POLYLINE
8
16728128
66
1
40
0.000000
41
0.000000
0
VERTEX
8
16728128
10
-0.420000
20
-0.607000
0
VERTEX
8
16728128
10
-0.380000
20
-0.607000
0
SEQEND
8
16728128
0
POLYLINE
8
16728128
66
1
40
0.000000
41
0.000000
0
VERTEX
8
16728128
10
-0.420000
20
-0.606000
0
VERTEX
8
16728128
10
-0.380000
20
-0.606000
0
SEQEND
8
16728128
0
POLYLINE
8
16728128
66
1
40
0.000000
41
0.000000
0
VERTEX
8
16728128
10
-0.420000
20
-0.605000
0
VERTEX
8
16728128
10
-0.380000
20
-0.605000
0
SEQEND
8
16728128
0
POLYLINE
8
16728128
66
1
40
0.000000
41
0.000000
0
VERTEX
8
16728128
10
-0.420000
20
-0.604000
0
VERTEX
8
16728128
10
-0.380000
20
-0.604000
0
SEQEND
8
16728128
0
POLYLINE
8
16728128
66
1
40
0.000000
41
0.000000
0
VERTEX
8
16728128
10
-0.420000
20
-0.603000
0
VERTEX
8
16728128
10
-0.380000
20
-0.603000
0
SEQEND
8
16728128
0
POLYLINE
8
16728128
66
1
40
0.000000
41
0.000000
0
VERTEX
8
16728128
10
-0.420000
20
-0.602000
0
VERTEX
8
16728128
10
-0.380000
20
-0.602000
0
SEQEND
8
16728128
0
POLYLINE
8
16728128
66
1
40
0.000000
41
0.000000
0
VERTEX
8
16728128
10
-0.420000
20
-0.601000
0
VERTEX
8
16728128
10
-0.380000
20
-0.601000
0
SEQEND
8
16728128
0
POLYLINE
8
16728128
66
1
40
0.000000
41
0.000000
0
VERTEX
8
16728128
10
-0.420000
20
-0.600000
0
VERTEX
8
16728128
10
-0.380000
20
-0.600000
0
SEQEND
8
16728128
0
POLYLINE
8
16728128
66
1
40
0.000000
41
0.000000
0
VERTEX
8
16728128
10
-0.420000
20
-0.599000
0
VERTEX
8
16728128
10
-0.380000
20
-0.599000
0
SEQEND
8
16728128
0
POLYLINE
8
16728128
66
1
40
0.000000
41
0.000000
0
VERTEX
8
16728128
10
-0.420000
20
-0.598000
0
VERTEX
8
16728128
10
-0.380000
20
-0.598000
0
SEQEND
8
16728128
0
POLYLINE
8
16728128
66
1
40
0.000000
41
0.000000
0
VERTEX
8
16728128
10
-0.420000
20
-0.597000
0
VERTEX
8
16728128
10
-0.380000
20
-0.597000
0
SEQEND
8
16728128
0
POLYLINE
8
16728128
66
1
40
0.000000
41
0.000000
0
VERTEX
8
16728128
10
-0.420000
20
-0.596000
0
VERTEX
8
16728128
10
-0.380000
20
-0.596000
0
SEQEND
8
16728128
0
POLYLINE
8
16728128
66
1
40
0.000000
41
0.000000
0
VERTEX
8
16728128
10
-0.420000
20
-0.595000
0
VERTEX
8
16728128
10
-0.380000
20
-0.595000
0
SEQEND
8
16728128
0
POLYLINE
8
16728128
66
1
40
0.000000
41
0.000000
0
VERTEX
8
16728128
10
-0.520000
20
-0.635000
0
VERTEX
8
16728128
10
-0.480000
20
-0.635000
0
SEQEND
8
16728128
0
POLYLINE
8
16728128
66
1
40
0.000000
41
0.000000
0
VERTEX
8
16728128
10
-0.520000
20
-0.634000
0
VERTEX
8
16728128
10
-0.480000
20
-0.634000
0
SEQEND
8
16728128
0
POLYLINE
8
16728128
66
1
40
0.000000
41
0.000000
0
VERTEX
8
16728128
10
-0.520000
20
-0.633000
0
VERTEX
8
16728128
10
-0.480000
20
-0.633000
0
SEQEND
8
16728128
0
POLYLINE
8
16728128
66
1
40
0.000000
41
0.000000
0
VERTEX
8
16728128
10
-0.520000
20
-0.632000
0
VERTEX
8
16728128
10
-0.480000
20
-0.632000
0
SEQEND
8
16728128
0
POLYLINE
8
16728128
66
1
40
0.000000
41
0.000000
0
VERTEX
8
16728128
10
-0.520000
20
-0.631000
0
VERTEX
8
16728128
10
-0.480000
20
-0.631000
0
SEQEND
8
16728128
0
POLYLINE
8
16728128
66
1
40
0.000000
41
0.000000
0
VERTEX
8
16728128
10
-0.520000
20
-0.630000
0
VERTEX
8
16728128
10
-0.480000
20
-0.630000
0
SEQEND
8
16728128
0
POLYLINE
8
16728128
66
1
40
0.000000
41
0.000000
0
VERTEX
8
16728128
10
-0.520000
20
-0.629000
0
VERTEX
8
16728128
10
-0.480000
20
-0.629000
0
SEQEND
8
16728128
0
POLYLINE
8
16728128
66
1
40
0.000000
41
0.000000
0
VERTEX
8
16728128
10
-0.520000
20
-0.628000
0
VERTEX
8
16728128
10
-0.480000
20
-0.628000
0
SEQEND
8
16728128
0
POLYLINE
8
16728128
66
1
40
0.000000
41
0.000000
0
VERTEX
8
16728128
10
-0.520000
20
-0.627000
0
VERTEX
8
16728128
10
-0.480000
20
-0.627000
0
SEQEND
8
16728128
0
POLYLINE
8
16728128
66
1
40
0.000000
41
0.000000
0
VERTEX
8
16728128
10
-0.520000
20
-0.626000
0
VERTEX
8
16728128
10
-0.480000
20
-0.626000
0
SEQEND
8
16728128
0
POLYLINE
8
16728128
66
1
40
0.000000
41
0.000000
0
VERTEX
8
16728128
10
-0.520000
20
-0.625000
0
VERTEX
8
16728128
10
-0.480000
20
-0.625000
0
SEQEND
8
16728128
0
POLYLINE
8
16728128
66
1
40
0.000000
41
0.000000
0
VERTEX
8
16728128
10
-0.520000
20
-0.624000
0
VERTEX
8
16728128
10
-0.480000
20
-0.624000
0
SEQEND
8
16728128
0
POLYLINE
8
16728128
66
1
40
0.000000
41
0.000000
0
VERTEX
8
16728128
10
-0.520000
20
-0.623000
0
VERTEX
8
16728128
10
-0.480000
20
-0.623000
0
SEQEND
8
16728128
0
POLYLINE
8
16728128
66
1
40
0.000000
41
0.000000
0
VERTEX
8
16728128
10
-0.520000
20
-0.622000
0
VERTEX
8
16728128
10
-0.480000
20
-0.622000
0
SEQEND
8
16728128
0
POLYLINE
8
16728128
66
1
40
0.000000
41
0.000000
0
VERTEX
8
16728128
10
-0.520000
20
-0.621000
0
VERTEX
8
16728128
10
-0.480000
20
-0.621000
0
SEQEND
8
16728128
0
POLYLINE
8
16728128
66
1
40
0.000000
41
0.000000
0
VERTEX
8
16728128
10
-0.520000
20
-0.620000
0
VERTEX
8
16728128
10
-0.480000
20
-0.620000
0
SEQEND
8
16728128
0
POLYLINE
8
16728128
66
1
40
0.000000
41
0.000000
0
VERTEX
8
16728128
10
-0.520000
20
-0.619000
0
VERTEX
8
16728128
10
-0.480000
20
-0.619000
0
SEQEND
8
16728128
0
POLYLINE
8
16728128
66
1
40
0.000000
41
0.000000
0
VERTEX
8
16728128
10
-0.520000
20
-0.618000
0
VERTEX
8
16728128
10
-0.480000
20
-0.618000
0
SEQEND
8
16728128
0
POLYLINE
8
16728128
66
1
40
0.000000
41
0.000000
0
VERTEX
8
16728128
10
-0.520000
20
-0.617000
0
VERTEX
8
16728128
10
-0.480000
20
-0.617000
0
SEQEND
8
16728128
0
POLYLINE
8
16728128
66
1
40
0.000000
41
0.000000
0
VERTEX
8
16728128
10
-0.520000
20
-0.616000
0
VERTEX
8
16728128
10
-0.480000
20
-0.616000
0
SEQEND
8
16728128
0
POLYLINE
8
16728128
66
1
40
0.000000
41
0.000000
0
VERTEX
8
16728128
10
-0.520000
20
-0.615000
0
VERTEX
8
16728128
10
-0.480000
20
-0.615000
0
SEQEND
8
16728128
0
POLYLINE
8
16728128
66
1
40
0.000000
41
0.000000
0
VERTEX
8
16728128
10
-0.520000
20
-0.614000
0
VERTEX
8
16728128
10
-0.480000
20
-0.614000
0
SEQEND
8
16728128
0
POLYLINE
8
16728128
66
1
40
0.000000
41
0.000000
0
VERTEX
8
16728128
10
-0.520000
20
-0.613000
0
VERTEX
8
16728128
10
-0.480000
20
-0.613000
0
SEQEND
8
16728128
0
POLYLINE
8
16728128
66
1
40
0.000000
41
0.000000
0
VERTEX
8
16728128
10
-0.520000
20
-0.612000
0
VERTEX
8
16728128
10
-0.480000
20
-0.612000
0
SEQEND
8
16728128
0
POLYLINE
8
16728128
66
1
40
0.000000
41
0.000000
0
VERTEX
8
16728128
10
-0.520000
20
-0.611000
0
VERTEX
8
16728128
10
-0.480000
20
-0.611000
0
SEQEND
8
16728128
0
POLYLINE
8
16728128
66
1
40
0.000000
41
0.000000
0
VERTEX
8
16728128
10
-0.520000
20
-0.610000
0
VERTEX
8
16728128
10
-0.480000
20
-0.610000
0
SEQEND
8
16728128
0
POLYLINE
8
16728128
66
1
40
0.000000
41
0.000000
0
VERTEX
8
16728128
10
-0.520000
20
-0.609000
0
VERTEX
8
16728128
10
-0.480000
20
-0.609000
0
SEQEND
8
16728128
0
POLYLINE
8
16728128
66
1
40
0.000000
41
0.000000
0
VERTEX
8
16728128
10
-0.520000
20
-0.608000
0
VERTEX
8
16728128
10
-0.480000
20
-0.608000
0
SEQEND
8
16728128
0
POLYLINE
8
16728128
66
1
40
0.000000
41
0.000000
0
VERTEX
8
16728128
10
-0.520000
20
-0.607000
0
VERTEX
8
16728128
10
-0.480000
20
-0.607000
0
SEQEND
8
16728128
0
POLYLINE
8
16728128
66
1
40
0.000000
41
0.000000
0
VERTEX
8
16728128
10
-0.520000
20
-0.606000
0
VERTEX
8
16728128
10
-0.480000
20
-0.606000
0
SEQEND
8
16728128
0
POLYLINE
8
16728128
66
1
40
0.000000
41
0.000000
0
VERTEX
8
16728128
10
-0.520000
20
-0.605000
0
VERTEX
8
16728128
10
-0.480000
20
-0.605000
0
SEQEND
8
16728128
0
POLYLINE
8
16728128
66
1
40
0.000000
41
0.000000
0
VERTEX
8
16728128
10
-0.520000
20
-0.604000
0
VERTEX
8
16728128
10
-0.480000
20
-0.604000
0
SEQEND
8
16728128
0
POLYLINE
8
16728128
66
1
40
0.000000
41
0.000000
0
VERTEX
8
16728128
10
-0.520000
20
-0.603000
0
VERTEX
8
16728128
10
-0.480000
20
-0.603000
0
SEQEND
8
16728128
0
POLYLINE
8
16728128
66
1
40
0.000000
41
0.000000
0
VERTEX
8
16728128
10
-0.520000
20
-0.602000
0
VERTEX
8
16728128
10
-0.480000
20
-0.602000
0
SEQEND
8
16728128
0
POLYLINE
8
16728128
66
1
40
0.000000
41
0.000000
0
VERTEX
8
16728128
10
-0.520000
20
-0.601000
0
VERTEX
8
16728128
10
-0.480000
20
-0.601000
0
SEQEND
8
16728128
0
POLYLINE
8
16728128
66
1
40
0.000000
41
0.000000
0
VERTEX
8
16728128
10
-0.520000
20
-0.600000
0
VERTEX
8
16728128
10
-0.480000
20
-0.600000
0
SEQEND
8
16728128
0
POLYLINE
8
16728128
66
1
40
0.000000
41
0.000000
0
VERTEX
8
16728128
10
-0.520000
20
-0.599000
0
VERTEX
8
16728128
10
-0.480000
20
-0.599000
0
SEQEND
8
16728128
0
POLYLINE
8
16728128
66
1
40
0.000000
41
0.000000
0
VERTEX
8
16728128
10
-0.520000
20
-0.598000
0
VERTEX
8
16728128
10
-0.480000
20
-0.598000
0
SEQEND
8
16728128
0
POLYLINE
8
16728128
66
1
40
0.000000
41
0.000000
0
VERTEX
8
16728128
10
-0.520000
20
-0.597000
0
VERTEX
8
16728128
10
-0.480000
20
-0.597000
0
SEQEND
8
16728128
0
POLYLINE
8
16728128
66
1
40
0.000000
41
0.000000
0
VERTEX
8
16728128
10
-0.520000
20
-0.596000
0
VERTEX
8
16728128
10
-0.480000
20
-0.596000
0
SEQEND
8
16728128
0
POLYLINE
8
16728128
66
1
40
0.000000
41
0.000000
0
VERTEX
8
16728128
10
-0.520000
20
-0.595000
0
VERTEX
8
16728128
10
-0.480000
20
-0.595000
0
SEQEND
8
16728128
0
POLYLINE
8
16728128
66
1
40
0.000000
41
0.000000
0
VERTEX
8
16728128
10
-0.620000
20
-0.635000
0
VERTEX
8
16728128
10
-0.580000
20
-0.635000
0
SEQEND
8
16728128
0
POLYLINE
8
16728128
66
1
40
0.000000
41
0.000000
0
VERTEX
8
16728128
10
-0.620000
20
-0.634000
0
VERTEX
8
16728128
10
-0.580000
20
-0.634000
0
SEQEND
8
16728128
0
POLYLINE
8
16728128
66
1
40
0.000000
41
0.000000
0
VERTEX
8
16728128
10
-0.620000
20
-0.633000
0
VERTEX
8
16728128
10
-0.580000
20
-0.633000
0
SEQEND
8
16728128
0
POLYLINE
8
16728128
66
1
40
0.000000
41
0.000000
0
VERTEX
8
16728128
10
-0.620000
20
-0.632000
0
VERTEX
8
16728128
10
-0.580000
20
-0.632000
0
SEQEND
8
16728128
0
POLYLINE
8
16728128
66
1
40
0.000000
41
0.000000
0
VERTEX
8
16728128
10
-0.620000
20
-0.631000
0
VERTEX
8
16728128
10
-0.580000
20
-0.631000
0
SEQEND
8
16728128
0
POLYLINE
8
16728128
66
1
40
0.000000
41
0.000000
0
VERTEX
8
16728128
10
-0.620000
20
-0.630000
0
VERTEX
8
16728128
10
-0.580000
20
-0.630000
0
SEQEND
8
16728128
0
POLYLINE
8
16728128
66
1
40
0.000000
41
0.000000
0
VERTEX
8
16728128
10
-0.620000
20
-0.629000
0
VERTEX
8
16728128
10
-0.580000
20
-0.629000
0
SEQEND
8
16728128
0
POLYLINE
8
16728128
66
1
40
0.000000
41
0.000000
0
VERTEX
8
16728128
10
-0.620000
20
-0.628000
0
VERTEX
8
16728128
10
-0.580000
20
-0.628000
0
SEQEND
8
16728128
0
POLYLINE
8
16728128
66
1
40
0.000000
41
0.000000
0
VERTEX
8
16728128
10
-0.620000
20
-0.627000
0
VERTEX
8
16728128
10
-0.580000
20
-0.627000
0
SEQEND
8
16728128
0
POLYLINE
8
16728128
66
1
40
0.000000
41
0.000000
0
VERTEX
8
16728128
10
-0.620000
20
-0.626000
0
VERTEX
8
16728128
10
-0.580000
20
-0.626000
0
SEQEND
8
16728128
0
POLYLINE
8
16728128
66
1
40
0.000000
41
0.000000
0
VERTEX
8
16728128
10
-0.620000
20
-0.625000
0
VERTEX
8
16728128
10
-0.580000
20
-0.625000
0
SEQEND
8
16728128
0
POLYLINE
8
16728128
66
1
40
0.000000
41
0.000000
0
VERTEX
8
16728128
10
-0.620000
20
-0.624000
0
VERTEX
8
16728128
10
-0.580000
20
-0.624000
0
SEQEND
8
16728128
0
POLYLINE
8
16728128
66
1
40
0.000000
41
0.000000
0
VERTEX
8
16728128
10
-0.620000
20
-0.623000
0
VERTEX
8
16728128
10
-0.580000
20
-0.623000
0
SEQEND
8
16728128
0
POLYLINE
8
16728128
66
1
40
0.000000
41
0.000000
0
VERTEX
8
16728128
10
-0.620000
20
-0.622000
0
VERTEX
8
16728128
10
-0.580000
20
-0.622000
0
SEQEND
8
16728128
0
POLYLINE
8
16728128
66
1
40
0.000000
41
0.000000
0
VERTEX
8
16728128
10
-0.620000
20
-0.621000
0
VERTEX
8
16728128
10
-0.580000
20
-0.621000
0
SEQEND
8
16728128
0
POLYLINE
8
16728128
66
1
40
0.000000
41
0.000000
0
VERTEX
8
16728128
10
-0.620000
20
-0.620000
0
VERTEX
8
16728128
10
-0.580000
20
-0.620000
0
SEQEND
8
16728128
0
POLYLINE
8
16728128
66
1
40
0.000000
41
0.000000
0
VERTEX
8
16728128
10
-0.620000
20
-0.619000
0
VERTEX
8
16728128
10
-0.580000
20
-0.619000
0
SEQEND
8
16728128
0
POLYLINE
8
16728128
66
1
40
0.000000
41
0.000000
0
VERTEX
8
16728128
10
-0.620000
20
-0.618000
0
VERTEX
8
16728128
10
-0.580000
20
-0.618000
0
SEQEND
8
16728128
0
POLYLINE
8
16728128
66
1
40
0.000000
41
0.000000
0
VERTEX
8
16728128
10
-0.620000
20
-0.617000
0
VERTEX
8
16728128
10
-0.580000
20
-0.617000
0
SEQEND
8
16728128
0
POLYLINE
8
16728128
66
1
40
0.000000
41
0.000000
0
VERTEX
8
16728128
10
-0.620000
20
-0.616000
0
VERTEX
8
16728128
10
-0.580000
20
-0.616000
0
SEQEND
8
16728128
0
POLYLINE
8
16728128
66
1
40
0.000000
41
0.000000
0
VERTEX
8
16728128
10
-0.620000
20
-0.615000
0
VERTEX
8
16728128
10
-0.580000
20
-0.615000
0
SEQEND
8
16728128
0
POLYLINE
8
16728128
66
1
40
0.000000
41
0.000000
0
VERTEX
8
16728128
10
-0.620000
20
-0.614000
0
VERTEX
8
16728128
10
-0.580000
20
-0.614000
0
SEQEND
8
16728128
0
POLYLINE
8
16728128
66
1
40
0.000000
41
0.000000
0
VERTEX
8
16728128
10
-0.620000
20
-0.613000
0
VERTEX
8
16728128
10
-0.580000
20
-0.613000
0
SEQEND
8
16728128
0
POLYLINE
8
16728128
66
1
40
0.000000
41
0.000000
0
VERTEX
8
16728128
10
-0.620000
20
-0.612000
0
VERTEX
8
16728128
10
-0.580000
20
-0.612000
0
SEQEND
8
16728128
0
POLYLINE
8
16728128
66
1
40
0.000000
41
0.000000
0
VERTEX
8
16728128
10
-0.620000
20
-0.611000
0
VERTEX
8
16728128
10
-0.580000
20
-0.611000
0
SEQEND
8
16728128
0
POLYLINE
8
16728128
66
1
40
0.000000
41
0.000000
0
VERTEX
8
16728128
10
-0.620000
20
-0.610000
0
VERTEX
8
16728128
10
-0.580000
20
-0.610000
0
SEQEND
8
16728128
0
POLYLINE
8
16728128
66
1
40
0.000000
41
0.000000
0
VERTEX
8
16728128
10
-0.620000
20
-0.609000
0
VERTEX
8
16728128
10
-0.580000
20
-0.609000
0
SEQEND
8
16728128
0
POLYLINE
8
16728128
66
1
40
0.000000
41
0.000000
0
VERTEX
8
16728128
10
-0.620000
20
-0.608000
0
VERTEX
8
16728128
10
-0.580000
20
-0.608000
0
SEQEND
8
16728128
0
POLYLINE
8
16728128
66
1
40
0.000000
41
0.000000
0
VERTEX
8
16728128
10
-0.620000
20
-0.607000
0
VERTEX
8
16728128
10
-0.580000
20
-0.607000
0
SEQEND
8
16728128
0
POLYLINE
8
16728128
66
1
40
0.000000
41
0.000000
0
VERTEX
8
16728128
10
-0.620000
20
-0.606000
0
VERTEX
8
16728128
10
-0.580000
20
-0.606000
0
SEQEND
8
16728128
0
POLYLINE
8
16728128
66
1
40
0.000000
41
0.000000
0
VERTEX
8
16728128
10
-0.620000
20
-0.605000
0
VERTEX
8
16728128
10
-0.580000
20
-0.605000
0
SEQEND
8
16728128
0
POLYLINE
8
16728128
66
1
40
0.000000
41
0.000000
0
VERTEX
8
16728128
10
-0.620000
20
-0.604000
0
VERTEX
8
16728128
10
-0.580000
20
-0.604000
0
SEQEND
8
16728128
0
POLYLINE
8
16728128
66
1
40
0.000000
41
0.000000
0
VERTEX
8
16728128
10
-0.620000
20
-0.603000
0
VERTEX
8
16728128
10
-0.580000
20
-0.603000
0
SEQEND
8
16728128
0
POLYLINE
8
16728128
66
1
40
0.000000
41
0.000000
0
VERTEX
8
16728128
10
-0.620000
20
-0.602000
0
VERTEX
8
16728128
10
-0.580000
20
-0.602000
0
SEQEND
8
16728128
0
POLYLINE
8
16728128
66
1
40
0.000000
41
0.000000
0
VERTEX
8
16728128
10
-0.620000
20
-0.601000
0
VERTEX
8
16728128
10
-0.580000
20
-0.601000
0
SEQEND
8
16728128
0
POLYLINE
8
16728128
66
1
40
0.000000
41
0.000000
0
VERTEX
8
16728128
10
-0.620000
20
-0.600000
0
VERTEX
8
16728128
10
-0.580000
20
-0.600000
0
SEQEND
8
16728128
0
POLYLINE
8
16728128
66
1
40
0.000000
41
0.000000
0
VERTEX
8
16728128
10
-0.620000
20
-0.599000
0
VERTEX
8
16728128
10
-0.580000
20
-0.599000
0
SEQEND
8
16728128
0
POLYLINE
8
16728128
66
1
40
0.000000
41
0.000000
0
VERTEX
8
16728128
10
-0.620000
20
-0.598000
0
VERTEX
8
16728128
10
-0.580000
20
-0.598000
0
SEQEND
8
16728128
0
POLYLINE
8
16728128
66
1
40
0.000000
41
0.000000
0
VERTEX
8
16728128
10
-0.620000
20
-0.597000
0
VERTEX
8
16728128
10
-0.580000
20
-0.597000
0
SEQEND
8
16728128
0
POLYLINE
8
16728128
66
1
40
0.000000
41
0.000000
0
VERTEX
8
16728128
10
-0.620000
20
-0.596000
0
VERTEX
8
16728128
10
-0.580000
20
-0.596000
0
SEQEND
8
16728128
0
POLYLINE
8
16728128
66
1
40
0.000000
41
0.000000
0
VERTEX
8
16728128
10
-0.620000
20
-0.595000
0
VERTEX
8
16728128
10
-0.580000
20
-0.595000
0
SEQEND
8
16728128
0
POLYLINE
8
16728128
66
1
40
0.000000
41
0.000000
0
VERTEX
8
16728128
10
-0.720000
20
-0.635000
0
VERTEX
8
16728128
10
-0.680000
20
-0.635000
0
SEQEND
8
16728128
0
POLYLINE
8
16728128
66
1
40
0.000000
41
0.000000
0
VERTEX
8
16728128
10
-0.720000
20
-0.634000
0
VERTEX
8
16728128
10
-0.680000
20
-0.634000
0
SEQEND
8
16728128
0
POLYLINE
8
16728128
66
1
40
0.000000
41
0.000000
0
VERTEX
8
16728128
10
-0.720000
20
-0.633000
0
VERTEX
8
16728128
10
-0.680000
20
-0.633000
0
SEQEND
8
16728128
0
POLYLINE
8
16728128
66
1
40
0.000000
41
0.000000
0
VERTEX
8
16728128
10
-0.720000
20
-0.632000
0
VERTEX
8
16728128
10
-0.680000
20
-0.632000
0
SEQEND
8
16728128
0
POLYLINE
8
16728128
66
1
40
0.000000
41
0.000000
0
VERTEX
8
16728128
10
-0.720000
20
-0.631000
0
VERTEX
8
16728128
10
-0.680000
20
-0.631000
0
SEQEND
8
16728128
0
POLYLINE
8
16728128
66
1
40
0.000000
41
0.000000
0
VERTEX
8
16728128
10
-0.720000
20
-0.630000
0
VERTEX
8
16728128
10
-0.680000
20
-0.630000
0
SEQEND
8
16728128
0
POLYLINE
8
16728128
66
1
40
0.000000
41
0.000000
0
VERTEX
8
16728128
10
-0.720000
20
-0.629000
0
VERTEX
8
16728128
10
-0.680000
20
-0.629000
0
SEQEND
8
16728128
0
POLYLINE
8
16728128
66
1
40
0.000000
41
0.000000
0
VERTEX
8
16728128
10
-0.720000
20
-0.628000
0
VERTEX
8
16728128
10
-0.680000
20
-0.628000
0
SEQEND
8
16728128
0
POLYLINE
8
16728128
66
1
40
0.000000
41
0.000000
0
VERTEX
8
16728128
10
-0.720000
20
-0.627000
0
VERTEX
8
16728128
10
-0.680000
20
-0.627000
0
SEQEND
8
16728128
0
POLYLINE
8
16728128
66
1
40
0.000000
41
0.000000
0
VERTEX
8
16728128
10
-0.720000
20
-0.626000
0
VERTEX
8
16728128
10
-0.680000
20
-0.626000
0
SEQEND
8
16728128
0
POLYLINE
8
16728128
66
1
40
0.000000
41
0.000000
0
VERTEX
8
16728128
10
-0.720000
20
-0.625000
0
VERTEX
8
16728128
10
-0.680000
20
-0.625000
0
SEQEND
8
16728128
0
POLYLINE
8
16728128
66
1
40
0.000000
41
0.000000
0
VERTEX
8
16728128
10
-0.720000
20
-0.624000
0
VERTEX
8
16728128
10
-0.680000
20
-0.624000
0
SEQEND
8
16728128
0
POLYLINE
8
16728128
66
1
40
0.000000
41
0.000000
0
VERTEX
8
16728128
10
-0.720000
20
-0.623000
0
VERTEX
8
16728128
10
-0.680000
20
-0.623000
0
SEQEND
8
16728128
0
POLYLINE
8
16728128
66
1
40
0.000000
41
0.000000
0
VERTEX
8
16728128
10
-0.720000
20
-0.622000
0
VERTEX
8
16728128
10
-0.680000
20
-0.622000
0
SEQEND
8
16728128
0
POLYLINE
8
16728128
66
1
40
0.000000
41
0.000000
0
VERTEX
8
16728128
10
-0.720000
20
-0.621000
0
VERTEX
8
16728128
10
-0.680000
20
-0.621000
0
SEQEND
8
16728128
0
POLYLINE
8
16728128
66
1
40
0.000000
41
0.000000
0
VERTEX
8
16728128
10
-0.720000
20
-0.620000
0
VERTEX
8
16728128
10
-0.680000
20
-0.620000
0
SEQEND
8
16728128
0
POLYLINE
8
16728128
66
1
40
0.000000
41
0.000000
0
VERTEX
8
16728128
10
-0.720000
20
-0.619000
0
VERTEX
8
16728128
10
-0.680000
20
-0.619000
0
SEQEND
8
16728128
0
POLYLINE
8
16728128
66
1
40
0.000000
41
0.000000
0
VERTEX
8
16728128
10
-0.720000
20
-0.618000
0
VERTEX
8
16728128
10
-0.680000
20
-0.618000
0
SEQEND
8
16728128
0
POLYLINE
8
16728128
66
1
40
0.000000
41
0.000000
0
VERTEX
8
16728128
10
-0.720000
20
-0.617000
0
VERTEX
8
16728128
10
-0.680000
20
-0.617000
0
SEQEND
8
16728128
0
POLYLINE
8
16728128
66
1
40
0.000000
41
0.000000
0
VERTEX
8
16728128
10
-0.720000
20
-0.616000
0
VERTEX
8
16728128
10
-0.680000
20
-0.616000
0
SEQEND
8
16728128
0
POLYLINE
8
16728128
66
1
40
0.000000
41
0.000000
0
VERTEX
8
16728128
10
-0.720000
20
-0.615000
0
VERTEX
8
16728128
10
-0.680000
20
-0.615000
0
SEQEND
8
16728128
0
POLYLINE
8
16728128
66
1
40
0.000000
41
0.000000
0
VERTEX
8
16728128
10
-0.720000
20
-0.614000
0
VERTEX
8
16728128
10
-0.680000
20
-0.614000
0
SEQEND
8
16728128
0
POLYLINE
8
16728128
66
1
40
0.000000
41
0.000000
0
VERTEX
8
16728128
10
-0.720000
20
-0.613000
0
VERTEX
8
16728128
10
-0.680000
20
-0.613000
0
SEQEND
8
16728128
0
POLYLINE
8
16728128
66
1
40
0.000000
41
0.000000
0
VERTEX
8
16728128
10
-0.720000
20
-0.612000
0
VERTEX
8
16728128
10
-0.680000
20
-0.612000
0
SEQEND
8
16728128
0
POLYLINE
8
16728128
66
1
40
0.000000
41
0.000000
0
VERTEX
8
16728128
10
-0.720000
20
-0.611000
0
VERTEX
8
16728128
10
-0.680000
20
-0.611000
0
SEQEND
8
16728128
0
POLYLINE
8
16728128
66
1
40
0.000000
41
0.000000
0
VERTEX
8
16728128
10
-0.720000
20
-0.610000
0
VERTEX
8
16728128
10
-0.680000
20
-0.610000
0
SEQEND
8
16728128
0
POLYLINE
8
16728128
66
1
40
0.000000
41
0.000000
0
VERTEX
8
16728128
10
-0.720000
20
-0.609000
0
VERTEX
8
16728128
10
-0.680000
20
-0.609000
0
SEQEND
8
16728128
0
POLYLINE
8
16728128
66
1
40
0.000000
41
0.000000
0
VERTEX
8
16728128
10
-0.720000
20
-0.608000
0
VERTEX
8
16728128
10
-0.680000
20
-0.608000
0
SEQEND
8
16728128
0
POLYLINE
8
16728128
66
1
40
0.000000
41
0.000000
0
VERTEX
8
16728128
10
-0.720000
20
-0.607000
0
VERTEX
8
16728128
10
-0.680000
20
-0.607000
0
SEQEND
8
16728128
0
POLYLINE
8
16728128
66
1
40
0.000000
41
0.000000
0
VERTEX
8
16728128
10
-0.720000
20
-0.606000
0
VERTEX
8
16728128
10
-0.680000
20
-0.606000
0
SEQEND
8
16728128
0
POLYLINE
8
16728128
66
1
40
0.000000
41
0.000000
0
VERTEX
8
16728128
10
-0.720000
20
-0.605000
0
VERTEX
8
16728128
10
-0.680000
20
-0.605000
0
SEQEND
8
16728128
0
POLYLINE
8
16728128
66
1
40
0.000000
41
0.000000
0
VERTEX
8
16728128
10
-0.720000
20
-0.604000
0
VERTEX
8
16728128
10
-0.680000
20
-0.604000
0
SEQEND
8
16728128
0
POLYLINE
8
16728128
66
1
40
0.000000
41
0.000000
0
VERTEX
8
16728128
10
-0.720000
20
-0.603000
0
VERTEX
8
16728128
10
-0.680000
20
-0.603000
0
SEQEND
8
16728128
0
POLYLINE
8
16728128
66
1
40
0.000000
41
0.000000
0
VERTEX
8
16728128
10
-0.720000
20
-0.602000
0
VERTEX
8
16728128
10
-0.680000
20
-0.602000
0
SEQEND
8
16728128
0
POLYLINE
8
16728128
66
1
40
0.000000
41
0.000000
0
VERTEX
8
16728128
10
-0.720000
20
-0.601000
0
VERTEX
8
16728128
10
-0.680000
20
-0.601000
0
SEQEND
8
16728128
0
POLYLINE
8
16728128
66
1
40
0.000000
41
0.000000
0
VERTEX
8
16728128
10
-0.720000
20
-0.600000
0
VERTEX
8
16728128
10
-0.680000
20
-0.600000
0
SEQEND
8
16728128
0
POLYLINE
8
16728128
66
1
40
0.000000
41
0.000000
0
VERTEX
8
16728128
10
-0.720000
20
-0.599000
0
VERTEX
8
16728128
10
-0.680000
20
-0.599000
0
SEQEND
8
16728128
0
POLYLINE
8
16728128
66
1
40
0.000000
41
0.000000
0
VERTEX
8
16728128
10
-0.720000
20
-0.598000
0
VERTEX
8
16728128
10
-0.680000
20
-0.598000
0
SEQEND
8
16728128
0
POLYLINE
8
16728128
66
1
40
0.000000
41
0.000000
0
VERTEX
8
16728128
10
-0.720000
20
-0.597000
0
VERTEX
8
16728128
10
-0.680000
20
-0.597000
0
SEQEND
8
16728128
0
POLYLINE
8
16728128
66
1
40
0.000000
41
0.000000
0
VERTEX
8
16728128
10
-0.720000
20
-0.596000
0
VERTEX
8
16728128
10
-0.680000
20
-0.596000
0
SEQEND
8
16728128
0
POLYLINE
8
16728128
66
1
40
0.000000
41
0.000000
0
VERTEX
8
16728128
10
-0.720000
20
-0.595000
0
VERTEX
8
16728128
10
-0.680000
20
-0.595000
0
SEQEND
8
16728128
0
POLYLINE
8
4210943
66
1
40
0.000000
41
0.000000
0
VERTEX
8
4210943
10
-0.820000
20
-0.635000
0
VERTEX
8
4210943
10
-0.780000
20
-0.635000
0
SEQEND
8
4210943
0
POLYLINE
8
4210943
66
1
40
0.000000
41
0.000000
0
VERTEX
8
4210943
10
-0.820000
20
-0.634000
0
VERTEX
8
4210943
10
-0.780000
20
-0.634000
0
SEQEND
8
4210943
0
POLYLINE
8
4210943
66
1
40
0.000000
41
0.000000
0
VERTEX
8
4210943
10
-0.820000
20
-0.633000
0
VERTEX
8
4210943
10
-0.780000
20
-0.633000
0
SEQEND
8
4210943
0
POLYLINE
8
4210943
66
1
40
0.000000
41
0.000000
0
VERTEX
8
4210943
10
-0.820000
20
-0.632000
0
VERTEX
8
4210943
10
-0.780000
20
-0.632000
0
SEQEND
8
4210943
0
POLYLINE
8
4210943
66
1
40
0.000000
41
0.000000
0
VERTEX
8
4210943
10
-0.820000
20
-0.631000
0
VERTEX
8
4210943
10
-0.780000
20
-0.631000
0
SEQEND
8
4210943
0
POLYLINE
8
4210943
66
1
40
0.000000
41
0.000000
0
VERTEX
8
4210943
10
-0.820000
20
-0.630000
0
VERTEX
8
4210943
10
-0.780000
20
-0.630000
0
SEQEND
8
4210943
0
POLYLINE
8
4210943
66
1
40
0.000000
41
0.000000
0
VERTEX
8
4210943
10
-0.820000
20
-0.629000
0
VERTEX
8
4210943
10
-0.780000
20
-0.629000
0
SEQEND
8
4210943
0
POLYLINE
8
4210943
66
1
40
0.000000
41
0.000000
0
VERTEX
8
4210943
10
-0.820000
20
-0.628000
0
VERTEX
8
4210943
10
-0.780000
20
-0.628000
0
SEQEND
8
4210943
0
POLYLINE
8
4210943
66
1
40
0.000000
41
0.000000
0
VERTEX
8
4210943
10
-0.820000
20
-0.627000
0
VERTEX
8
4210943
10
-0.780000
20
-0.627000
0
SEQEND
8
4210943
0
POLYLINE
8
4210943
66
1
40
0.000000
41
0.000000
0
VERTEX
8
4210943
10
-0.820000
20
-0.626000
0
VERTEX
8
4210943
10
-0.780000
20
-0.626000
0
SEQEND
8
4210943
0
POLYLINE
8
4210943
66
1
40
0.000000
41
0.000000
0
VERTEX
8
4210943
10
-0.820000
20
-0.625000
0
VERTEX
8
4210943
10
-0.780000
20
-0.625000
0
SEQEND
8
4210943
0
POLYLINE
8
4210943
66
1
40
0.000000
41
0.000000
0
VERTEX
8
4210943
10
-0.820000
20
-0.624000
0
VERTEX
8
4210943
10
-0.780000
20
-0.624000
0
SEQEND
8
4210943
0
POLYLINE
8
4210943
66
1
40
0.000000
41
0.000000
0
VERTEX
8
4210943
10
-0.820000
20
-0.623000
0
VERTEX
8
4210943
10
-0.780000
20
-0.623000
0
SEQEND
8
4210943
0
POLYLINE
8
4210943
66
1
40
0.000000
41
0.000000
0
VERTEX
8
4210943
10
-0.820000
20
-0.622000
0
VERTEX
8
4210943
10
-0.780000
20
-0.622000
0
SEQEND
8
4210943
0
POLYLINE
8
4210943
66
1
40
0.000000
41
0.000000
0
VERTEX
8
4210943
10
-0.820000
20
-0.621000
0
VERTEX
8
4210943
10
-0.780000
20
-0.621000
0
SEQEND
8
4210943
0
POLYLINE
8
4210943
66
1
40
0.000000
41
0.000000
0
VERTEX
8
4210943
10
-0.820000
20
-0.620000
0
VERTEX
8
4210943
10
-0.780000
20
-0.620000
0
SEQEND
8
4210943
0
POLYLINE
8
4210943
66
1
40
0.000000
41
0.000000
0
VERTEX
8
4210943
10
-0.820000
20
-0.619000
0
VERTEX
8
4210943
10
-0.780000
20
-0.619000
0
SEQEND
8
4210943
0
POLYLINE
8
4210943
66
1
40
0.000000
41
0.000000
0
VERTEX
8
4210943
10
-0.820000
20
-0.618000
0
VERTEX
8
4210943
10
-0.780000
20
-0.618000
0
SEQEND
8
4210943
0
POLYLINE
8
4210943
66
1
40
0.000000
41
0.000000
0
VERTEX
8
4210943
10
-0.820000
20
-0.617000
0
VERTEX
8
4210943
10
-0.780000
20
-0.617000
0
SEQEND
8
4210943
0
POLYLINE
8
4210943
66
1
40
0.000000
41
0.000000
0
VERTEX
8
4210943
10
-0.820000
20
-0.616000
0
VERTEX
8
4210943
10
-0.780000
20
-0.616000
0
SEQEND
8
4210943
0
POLYLINE
8
4210943
66
1
40
0.000000
41
0.000000
0
VERTEX
8
4210943
10
-0.820000
20
-0.615000
0
VERTEX
8
4210943
10
-0.780000
20
-0.615000
0
SEQEND
8
4210943
0
POLYLINE
8
4210943
66
1
40
0.000000
41
0.000000
0
VERTEX
8
4210943
10
-0.820000
20
-0.614000
0
VERTEX
8
4210943
10
-0.780000
20
-0.614000
0
SEQEND
8
4210943
0
POLYLINE
8
4210943
66
1
40
0.000000
41
0.000000
0
VERTEX
8
4210943
10
-0.820000
20
-0.613000
0
VERTEX
8
4210943
10
-0.780000
20
-0.613000
0
SEQEND
8
4210943
0
POLYLINE
8
4210943
66
1
40
0.000000
41
0.000000
0
VERTEX
8
4210943
10
-0.820000
20
-0.612000
0
VERTEX
8
4210943
10
-0.780000
20
-0.612000
0
SEQEND
8
4210943
0
POLYLINE
8
4210943
66
1
40
0.000000
41
0.000000
0
VERTEX
8
4210943
10
-0.820000
20
-0.611000
0
VERTEX
8
4210943
10
-0.780000
20
-0.611000
0
SEQEND
8
4210943
0
POLYLINE
8
4210943
66
1
40
0.000000
41
0.000000
0
VERTEX
8
4210943
10
-0.820000
20
-0.610000
0
VERTEX
8
4210943
10
-0.780000
20
-0.610000
0
SEQEND
8
4210943
0
POLYLINE
8
4210943
66
1
40
0.000000
41
0.000000
0
VERTEX
8
4210943
10
-0.820000
20
-0.609000
0
VERTEX
8
4210943
10
-0.780000
20
-0.609000
0
SEQEND
8
4210943
0
POLYLINE
8
4210943
66
1
40
0.000000
41
0.000000
0
VERTEX
8
4210943
10
-0.820000
20
-0.608000
0
VERTEX
8
4210943
10
-0.780000
20
-0.608000
0
SEQEND
8
4210943
0
POLYLINE
8
4210943
66
1
40
0.000000
41
0.000000
0
VERTEX
8
4210943
10
-0.820000
20
-0.607000
0
VERTEX
8
4210943
10
-0.780000
20
-0.607000
0
SEQEND
8
4210943
0
POLYLINE
8
4210943
66
1
40
0.000000
41
0.000000
0
VERTEX
8
4210943
10
-0.820000
20
-0.606000
0
VERTEX
8
4210943
10
-0.780000
20
-0.606000
0
SEQEND
8
4210943
0
POLYLINE
8
4210943
66
1
40
0.000000
41
0.000000
0
VERTEX
8
4210943
10
-0.820000
20
-0.605000
0
VERTEX
8
4210943
10
-0.780000
20
-0.605000
0
SEQEND
8
4210943
0
POLYLINE
8
4210943
66
1
40
0.000000
41
0.000000
0
VERTEX
8
4210943
10
-0.820000
20
-0.604000
0
VERTEX
8
4210943
10
-0.780000
20
-0.604000
0
SEQEND
8
4210943
0
POLYLINE
8
4210943
66
1
40
0.000000
41
0.000000
0
VERTEX
8
4210943
10
-0.820000
20
-0.603000
0
VERTEX
8
4210943
10
-0.780000
20
-0.603000
0
SEQEND
8
4210943
0
POLYLINE
8
4210943
66
1
40
0.000000
41
0.000000
0
VERTEX
8
4210943
10
-0.820000
20
-0.602000
0
VERTEX
8
4210943
10
-0.780000
20
-0.602000
0
SEQEND
8
4210943
0
POLYLINE
8
4210943
66
1
40
0.000000
41
0.000000
0
VERTEX
8
4210943
10
-0.820000
20
-0.601000
0
VERTEX
8
4210943
10
-0.780000
20
-0.601000
0
SEQEND
8
4210943
0
POLYLINE
8
4210943
66
1
40
0.000000
41
0.000000
0
VERTEX
8
4210943
10
-0.820000
20
-0.600000
0
VERTEX
8
4210943
10
-0.780000
20
-0.600000
0
SEQEND
8
4210943
0
POLYLINE
8
4210943
66
1
40
0.000000
41
0.000000
0
VERTEX
8
4210943
10
-0.820000
20
-0.599000
0
VERTEX
8
4210943
10
-0.780000
20
-0.599000
0
SEQEND
8
4210943
0
POLYLINE
8
4210943
66
1
40
0.000000
41
0.000000
0
VERTEX
8
4210943
10
-0.820000
20
-0.598000
0
VERTEX
8
4210943
10
-0.780000
20
-0.598000
0
SEQEND
8
4210943
0
POLYLINE
8
4210943
66
1
40
0.000000
41
0.000000
0
VERTEX
8
4210943
10
-0.820000
20
-0.597000
0
VERTEX
8
4210943
10
-0.780000
20
-0.597000
0
SEQEND
8
4210943
0
POLYLINE
8
4210943
66
1
40
0.000000
41
0.000000
0
VERTEX
8
4210943
10
-0.820000
20
-0.596000
0
VERTEX
8
4210943
10
-0.780000
20
-0.596000
0
SEQEND
8
4210943
0
POLYLINE
8
4210943
66
1
40
0.000000
41
0.000000
0
VERTEX
8
4210943
10
-0.820000
20
-0.595000
0
VERTEX
8
4210943
10
-0.780000
20
-0.595000
0
SEQEND
8
4210943
0
ENDSEC
0
EOF

